<svg xmlns="http://www.w3.org/2000/svg" width="25" height="25" viewBox="0 0 25 25">
  <g id="Group_1017" data-name="Group 1017" transform="translate(-72 -285)">
    <g id="calendar_3_" data-name="calendar (3)" transform="translate(72 285)">
      <g id="Group_800" data-name="Group 800">
        <g id="Group_799" data-name="Group 799">
          <circle id="Ellipse_420" data-name="Ellipse 420" cx="0.977" cy="0.977" r="0.977" transform="translate(17.871 9.277)" fill="#fff"/>
          <path id="Path_1152" data-name="Path 1152" d="M21.094,1.953h-1.27V.977a.977.977,0,0,0-1.953,0v.977H13.428V.977a.977.977,0,0,0-1.953,0v.977H7.08V.977a.977.977,0,0,0-1.953,0v.977H3.906A3.911,3.911,0,0,0,0,5.859V21.094A3.911,3.911,0,0,0,3.906,25h7.471a.977.977,0,0,0,0-1.953H3.906a1.955,1.955,0,0,1-1.953-1.953V5.859A1.955,1.955,0,0,1,3.906,3.906H5.127v.977a.977.977,0,0,0,1.953,0V3.906h4.395v.977a.977.977,0,0,0,1.953,0V3.906h4.443v.977a.977.977,0,0,0,1.953,0V3.906h1.27a1.955,1.955,0,0,1,1.953,1.953v5.566a.977.977,0,0,0,1.953,0V5.859A3.911,3.911,0,0,0,21.094,1.953Z" fill="#fff"/>
          <path id="Path_1153" data-name="Path 1153" d="M19.092,13.184A5.908,5.908,0,1,0,25,19.092,5.915,5.915,0,0,0,19.092,13.184Zm0,9.863a3.955,3.955,0,1,1,3.955-3.955A3.96,3.96,0,0,1,19.092,23.047Z" fill="#fff"/>
          <path id="Path_1154" data-name="Path 1154" d="M20.508,18.115h-.439V17.09a.977.977,0,0,0-1.953,0v2a.977.977,0,0,0,.977.977h1.416a.977.977,0,0,0,0-1.953Z" fill="#fff"/>
          <circle id="Ellipse_421" data-name="Ellipse 421" cx="0.977" cy="0.977" r="0.977" transform="translate(13.623 9.277)" fill="#fff"/>
          <circle id="Ellipse_422" data-name="Ellipse 422" cx="0.977" cy="0.977" r="0.977" transform="translate(9.375 13.525)" fill="#fff"/>
          <circle id="Ellipse_423" data-name="Ellipse 423" cx="0.977" cy="0.977" r="0.977" transform="translate(5.127 9.277)" fill="#fff"/>
          <circle id="Ellipse_424" data-name="Ellipse 424" cx="0.977" cy="0.977" r="0.977" transform="translate(5.127 13.525)" fill="#fff"/>
          <circle id="Ellipse_425" data-name="Ellipse 425" cx="0.977" cy="0.977" r="0.977" transform="translate(5.127 17.773)" fill="#fff"/>
          <circle id="Ellipse_426" data-name="Ellipse 426" cx="0.977" cy="0.977" r="0.977" transform="translate(9.375 17.773)" fill="#fff"/>
          <circle id="Ellipse_427" data-name="Ellipse 427" cx="0.977" cy="0.977" r="0.977" transform="translate(9.375 9.277)" fill="#fff"/>
        </g>
      </g>
    </g>
  </g>
</svg>
