<svg xmlns="http://www.w3.org/2000/svg" xmlns:xlink="http://www.w3.org/1999/xlink" width="40" height="40" viewBox="0 0 40 40">
  <defs>
    <clipPath id="clip-path">
      <circle id="Ellipse_640" data-name="Ellipse 640" cx="20" cy="20" r="20" transform="translate(1565 209)" fill="#fff"/>
    </clipPath>
  </defs>
  <g id="Mask_Group_68" data-name="Mask Group 68" transform="translate(-1565 -209)" clip-path="url(#clip-path)">
    <g id="remove" transform="translate(1565 209)">
      <path id="Path_1659" data-name="Path 1659" d="M20,0A20,20,0,1,0,40,20,20.022,20.022,0,0,0,20,0Zm0,0" fill="#85b640"/>
      <path id="Path_1660" data-name="Path 1660" d="M27.365,25.008a1.667,1.667,0,1,1-2.357,2.357L20,22.357l-5.008,5.009a1.667,1.667,0,0,1-2.357-2.357L17.643,20l-5.009-5.008a1.667,1.667,0,1,1,2.357-2.357L20,17.643l5.008-5.009a1.667,1.667,0,1,1,2.357,2.357L22.357,20Zm0,0" fill="#fafafa"/>
    </g>
  </g>
</svg>
