<svg xmlns="http://www.w3.org/2000/svg" width="20" height="20" viewBox="0 0 20 20">
  <g id="Group_364" data-name="Group 364" transform="translate(-659 -1175)">
    <g id="download_3_" data-name="download (3)" transform="translate(659 1175)">
      <g id="Group_356" data-name="Group 356">
        <g id="Group_355" data-name="Group 355">
          <path id="Path_566" data-name="Path 566" d="M18.909,1.091A3.7,3.7,0,0,0,16.276,0H3.724A3.728,3.728,0,0,0,0,3.724V16.276A3.728,3.728,0,0,0,3.724,20H16.276A3.728,3.728,0,0,0,20,16.276V3.724A3.7,3.7,0,0,0,18.909,1.091Zm-.081,15.185a2.555,2.555,0,0,1-2.552,2.552H3.724a2.555,2.555,0,0,1-2.552-2.552V3.724A2.555,2.555,0,0,1,3.724,1.172H16.276a2.552,2.552,0,0,1,2.552,2.552Z" fill="#fff"/>
        </g>
      </g>
      <g id="Group_358" data-name="Group 358">
        <g id="Group_357" data-name="Group 357">
          <path id="Path_567" data-name="Path 567" d="M13.521,8.5a.586.586,0,0,0-.829,0L10.586,10.6V4.352a.586.586,0,1,0-1.172,0V10.6L7.308,8.5a.586.586,0,0,0-.829.829l3.107,3.106a.586.586,0,0,0,.829,0l3.106-3.107A.586.586,0,0,0,13.521,8.5Z" fill="#fff"/>
        </g>
      </g>
      <g id="Group_360" data-name="Group 360">
        <g id="Group_359" data-name="Group 359">
          <path id="Path_568" data-name="Path 568" d="M15.649,15.063H4.352a.586.586,0,1,0,0,1.172h11.3a.586.586,0,1,0,0-1.172Z" fill="#fff"/>
        </g>
      </g>
    </g>
  </g>
</svg>
