<svg xmlns="http://www.w3.org/2000/svg" width="40" height="35" viewBox="0 0 40 35">
  <g id="Group_1933" data-name="Group 1933" transform="translate(-429 -1528)">
    <rect id="Rectangle_835" data-name="Rectangle 835" width="40" height="35" rx="7" transform="translate(429 1528)" fill="#85b640"/>
    <g id="mail_email_e-mail_letter" data-name="mail email e-mail letter" transform="translate(433 1530)">
      <path id="Path_467" data-name="Path 467" d="M28,13a1,1,0,0,0-1,1v8a1,1,0,0,1-1,1H6a1,1,0,0,1-1-1V14a1,1,0,0,0-2,0v8a3,3,0,0,0,3,3H26a3,3,0,0,0,3-3V14A1,1,0,0,0,28,13Z" fill="#fff"/>
      <path id="Path_468" data-name="Path 468" d="M15.4,18.8a1,1,0,0,0,1.2,0L28.41,9.94a1,1,0,0,0,.3-1.23,3.06,3.06,0,0,0-.59-.83A3,3,0,0,0,26,7H6a3,3,0,0,0-2.12.88,3.06,3.06,0,0,0-.59.83,1,1,0,0,0,.3,1.23ZM6,9H26a.9.9,0,0,1,.28,0L16,16.75,5.72,9A.9.9,0,0,1,6,9Z" fill="#fff"/>
    </g>
  </g>
</svg>
