<svg xmlns="http://www.w3.org/2000/svg" width="22" height="22" viewBox="0 0 22 22">
  <g id="Group_261" data-name="Group 261" transform="translate(-1217 -35)">
    <path id="facebook" d="M19.035,0H2.965A2.965,2.965,0,0,0,0,2.965V19.035A2.965,2.965,0,0,0,2.965,22h7.926l.014-7.862H8.862a.482.482,0,0,1-.482-.48l-.01-2.534a.482.482,0,0,1,.482-.484h2.039V8.192A4,4,0,0,1,15.161,3.8h2.08a.482.482,0,0,1,.482.482V6.422a.482.482,0,0,1-.482.482H15.965c-1.379,0-1.645.655-1.645,1.616v2.12h3.029a.482.482,0,0,1,.479.539l-.3,2.534a.482.482,0,0,1-.479.425H14.333L14.319,22h4.716A2.965,2.965,0,0,0,22,19.036V2.965A2.965,2.965,0,0,0,19.035,0Z" transform="translate(1217 35)" fill="#475993"/>
  </g>
</svg>
