<svg xmlns="http://www.w3.org/2000/svg" width="22" height="22" viewBox="0 0 22 22">
  <g id="Group_260" data-name="Group 260" transform="translate(-1317 -35)">
    <path id="linkedin" d="M20.01,0H1.99A1.99,1.99,0,0,0,0,1.99V20.01A1.99,1.99,0,0,0,1.99,22H20.01A1.99,1.99,0,0,0,22,20.01V1.99A1.99,1.99,0,0,0,20.01,0ZM6.808,19a.579.579,0,0,1-.579.579H3.763A.579.579,0,0,1,3.184,19V8.662a.579.579,0,0,1,.579-.579H6.229a.579.579,0,0,1,.579.579ZM5,7.109A2.342,2.342,0,1,1,7.338,4.767,2.342,2.342,0,0,1,5,7.109Zm14.7,11.934a.533.533,0,0,1-.532.532H16.513a.533.533,0,0,1-.532-.532V14.2c0-.723.212-3.169-1.89-3.169-1.63,0-1.961,1.674-2.027,2.425v5.591a.532.532,0,0,1-.532.532H8.972a.533.533,0,0,1-.532-.532V8.615a.533.533,0,0,1,.532-.532h2.559a.533.533,0,0,1,.532.532v.9a3.632,3.632,0,0,1,3.416-1.607c4.236,0,4.212,3.957,4.212,6.132v5Z" transform="translate(1317 35)" fill="#0077b7"/>
  </g>
</svg>
