<svg xmlns="http://www.w3.org/2000/svg" width="14.384" height="23" viewBox="0 0 14.384 23">
  <g id="Group_392" data-name="Group 392" transform="translate(-152.308 -1648)">
    <g id="location_2_" data-name="location (2)" transform="translate(148 1648)">
      <path id="Path_573" data-name="Path 573" d="M11.5,11.017a3.77,3.77,0,1,0-3.77-3.77A3.774,3.774,0,0,0,11.5,11.017Zm0-6.192A2.422,2.422,0,1,1,9.077,7.247,2.425,2.425,0,0,1,11.5,4.825Z" fill="#fff"/>
      <path id="Path_574" data-name="Path 574" d="M7.395,14.022c1.021,1.383.611.845,3.553,5.045a.674.674,0,0,0,1.1,0c2.955-4.22,2.548-3.685,3.553-5.045a17.145,17.145,0,0,0,2.647-4.472,6.961,6.961,0,0,0-1.016-6.734h0a7.251,7.251,0,0,0-11.472,0A6.961,6.961,0,0,0,4.748,9.549a17.143,17.143,0,0,0,2.647,4.472ZM6.83,3.64a5.9,5.9,0,0,1,9.341,0h0a5.652,5.652,0,0,1,.808,5.469,16.145,16.145,0,0,1-2.457,4.111c-.746,1.009-.522.7-3.021,4.283C9,13.925,9.224,14.23,8.479,13.221A16.146,16.146,0,0,1,6.022,9.11,5.652,5.652,0,0,1,6.83,3.64Z" fill="#fff"/>
      <path id="Path_575" data-name="Path 575" d="M7.948,16.943a.674.674,0,0,0-.93-.21L5.1,17.943a.674.674,0,0,0,0,1.139L11.14,22.9a.674.674,0,0,0,.72,0L17.9,19.083a.674.674,0,0,0,0-1.139l-1.916-1.21a.674.674,0,1,0-.72,1.139l1.014.64L11.5,21.529,6.724,18.513l1.014-.64a.674.674,0,0,0,.21-.929Z" fill="#fff"/>
    </g>
  </g>
</svg>
