<svg xmlns="http://www.w3.org/2000/svg" width="90.81" height="21.21" viewBox="0 0 90.81 21.21">
  <g id="Group_1664" data-name="Group 1664" transform="translate(-191.36 -53.75)">
    <g id="Group_1658" data-name="Group 1658" transform="translate(136.68 34.94)">
      <path id="Path_1557" data-name="Path 1557" d="M55.75,20.82H54.9v-.4a1,1,0,0,1,.07-.36,1.538,1.538,0,0,1,.08-.19,1.739,1.739,0,0,1,.11-.18,1.906,1.906,0,0,1,.7-.62,2.051,2.051,0,0,1,.95-.23,1.791,1.791,0,0,1,.92.22,1.653,1.653,0,0,1,.59.55,1.253,1.253,0,0,1,.2.63v1.58a1.542,1.542,0,0,1,.66.32,2.392,2.392,0,0,1,.59.67,1.678,1.678,0,0,1,.24.87,2.263,2.263,0,0,1-.21,1,1.9,1.9,0,0,1-.6.72,2.6,2.6,0,0,1-.83.42c-.09.03-.17.05-.24.07s-.15.03-.23.04a3.793,3.793,0,0,1-.49.03,3.393,3.393,0,0,1-.55-.04,3.807,3.807,0,0,1-.51-.12,2.92,2.92,0,0,1-.88-.45,1.961,1.961,0,0,1-.79-1.57,1.668,1.668,0,0,1,.26-.88,2.168,2.168,0,0,1,.72-.69,2.925,2.925,0,0,1,1.02-.39,2,2,0,0,0,.76-.25.579.579,0,0,0,.23-.44v-.6a1.115,1.115,0,0,0-.27-.75.852.852,0,0,0-.69-.33.487.487,0,0,0-.12.01c-.04.01-.07.01-.11.02-.07.03-.14.06-.22.1a1.236,1.236,0,0,0-.37.35.745.745,0,0,0-.1.2.693.693,0,0,0-.03.2v.49Zm2.93,1.81a1.976,1.976,0,0,0-1.35-.44,2.11,2.11,0,0,0-.77.13,1.732,1.732,0,0,0-.57.32,1.3,1.3,0,0,0-.35.48,1.661,1.661,0,0,0-.13.64,1.5,1.5,0,0,0,.47,1.13,1.856,1.856,0,0,0,1.34.45,1.927,1.927,0,0,0,1.37-.44,1.5,1.5,0,0,0,.46-1.14A1.383,1.383,0,0,0,58.68,22.63Z" fill="#7fae41"/>
      <path id="Path_1558" data-name="Path 1558" d="M62.04,19.05h.86v.48a.987.987,0,0,0,.27.77,4.4,4.4,0,0,0,.4.31l.62.41a4.175,4.175,0,0,1,1.12,1.01,2.445,2.445,0,0,1,.36,1.42,2.971,2.971,0,0,1-.04.54,2.417,2.417,0,0,1-.13.48,2.223,2.223,0,0,1-.48.78,2.064,2.064,0,0,1-.74.5,1.856,1.856,0,0,1-.46.13,2.667,2.667,0,0,1-.5.04,2.247,2.247,0,0,1-.58-.07,2.791,2.791,0,0,1-.55-.2,2.345,2.345,0,0,1-.88-.74,1.84,1.84,0,0,1-.26-.5,1.993,1.993,0,0,1-.08-.56,2.867,2.867,0,0,1,.08-.74.56.56,0,0,1,.25-.36h.85a.657.657,0,0,0-.25.38c-.02.05-.03.09-.04.11s-.01.09-.02.2l-.01.41a1.124,1.124,0,0,0,.02.2c.01.05.02.1.03.14a2.135,2.135,0,0,0,.16.35,1.869,1.869,0,0,0,.56.56,1.348,1.348,0,0,0,.73.21,1.287,1.287,0,0,0,1.11-.54,2.2,2.2,0,0,0,.39-1.33,1.984,1.984,0,0,0-.36-1.29,3.736,3.736,0,0,0-1.05-.83,4.87,4.87,0,0,1-1.02-.71,1.4,1.4,0,0,1-.34-1.04v-.52Z" fill="#7fae41"/>
      <path id="Path_1559" data-name="Path 1559" d="M70.81,22.17c.08-.03.15-.06.22-.08a1.553,1.553,0,0,1,.23-.05,1.644,1.644,0,0,0,.18-.03c.04,0,.12-.01.23-.01a1.64,1.64,0,0,1,1.37.56,2.031,2.031,0,0,1,.45,1.32,3.56,3.56,0,0,1-.09.76,3.778,3.778,0,0,1-.24.74c-.06.12-.11.23-.16.32a1.663,1.663,0,0,1-.16.24h-.96a2.859,2.859,0,0,0,.55-.95,3.353,3.353,0,0,0,.21-1.11,2.1,2.1,0,0,0-.12-.66,1.325,1.325,0,0,0-.37-.59.834.834,0,0,0-.58-.23.936.936,0,0,0-.54.17,1.119,1.119,0,0,0-.38.45,1.254,1.254,0,0,0-.14.56v.78h-.86v-.78a1.423,1.423,0,0,0-.12-.57.992.992,0,0,0-.93-.61.864.864,0,0,0-.6.23,1.349,1.349,0,0,0-.37.58l-.06.18a.5.5,0,0,0-.03.16.772.772,0,0,0-.02.15v.18l.01.42.03.34a2.459,2.459,0,0,0,.09.34,2.521,2.521,0,0,0,.13.33,2.238,2.238,0,0,0,.49.63H67.3a1.709,1.709,0,0,1-.35-.51,3.115,3.115,0,0,1-.12-.3c-.03-.09-.05-.2-.08-.32l-.07-.46-.01-.37-.01-.35-.01-.44a2.267,2.267,0,0,1,.61-1.68,4.587,4.587,0,0,1,1.47-.99l1.64-.71c.52-.24.78-.5.78-.77h.83a1.194,1.194,0,0,1-.54,1,6.79,6.79,0,0,1-1.58.78,16.344,16.344,0,0,0-1.56.65.94.94,0,0,0-.58.71,1.723,1.723,0,0,1,.35-.12,1.081,1.081,0,0,1,.27-.05c.09-.01.21-.01.33-.01l.29.02.27.06a2.051,2.051,0,0,1,.5.22,1.57,1.57,0,0,1,.36.29A2.075,2.075,0,0,1,70.81,22.17Z" fill="#7fae41"/>
      <path id="Path_1560" data-name="Path 1560" d="M75.01,19.71a2.162,2.162,0,0,1,.86-.64,2.492,2.492,0,0,1,1.05-.23,1.477,1.477,0,0,1,.21.01c.07.01.13.01.2.02a3.339,3.339,0,0,1,.4.1,2.588,2.588,0,0,1,.74.38,1.8,1.8,0,0,1,.51.56,1.386,1.386,0,0,1,.19.72v3.36a1.558,1.558,0,0,1-.34.98,2.355,2.355,0,0,1-.9.71,2.656,2.656,0,0,1-1.12.26,2.258,2.258,0,0,1-1.15-.31,2.48,2.48,0,0,1-.88-.82,1.916,1.916,0,0,1-.33-1.06c0-.14.01-.27.02-.39q.015-.09.03-.21a.894.894,0,0,1,.18-.38h.86a1.9,1.9,0,0,0-.23,1.09,1.125,1.125,0,0,0,.02.2c.01.05.02.1.03.14a2.135,2.135,0,0,0,.16.35,1.869,1.869,0,0,0,.56.56,1.348,1.348,0,0,0,.73.21,1.511,1.511,0,0,0,.74-.19,1.447,1.447,0,0,0,.56-.51,1.2,1.2,0,0,0,.21-.66V20.6a.963.963,0,0,0-.21-.58,1.483,1.483,0,0,0-.54-.45,1.65,1.65,0,0,0-.29-.13c-.08-.02-.14-.03-.17-.04a.716.716,0,0,0-.17-.01,1.42,1.42,0,0,0-.63.17,1.483,1.483,0,0,0-.54.45.963.963,0,0,0-.21.58v.57H74.7v-.57A1.27,1.27,0,0,1,75.01,19.71Z" fill="#7fae41"/>
      <path id="Path_1561" data-name="Path 1561" d="M83.79,20.41a.731.731,0,0,0-.22-.51,1.483,1.483,0,0,0-.55-.35,1.2,1.2,0,0,0-.17-.06c-.04-.01-.1-.02-.19-.04a1.274,1.274,0,0,0-.28-.02,1.5,1.5,0,0,0-.65.17,1.483,1.483,0,0,0-.54.45.936.936,0,0,0-.19.58v.38h-.86v-.5a1.291,1.291,0,0,1,.2-.69,1.785,1.785,0,0,1,.53-.53,2.926,2.926,0,0,1,.35-.21,2.35,2.35,0,0,1,.38-.14,2.656,2.656,0,0,1,.79-.12,2.781,2.781,0,0,1,.52.05,2.969,2.969,0,0,1,.52.15,2.294,2.294,0,0,1,.87.56,1.148,1.148,0,0,1,.34.83v3.57a2.015,2.015,0,0,1-.24.99,1.809,1.809,0,0,1-.76.71,2.784,2.784,0,0,1-1.25.26,2.914,2.914,0,0,1-.87-.13,2.167,2.167,0,0,1-.73-.36,1.855,1.855,0,0,1-.49-.63,2,2,0,0,1-.17-.84,2.027,2.027,0,0,1,.17-.81,1.658,1.658,0,0,1,.47-.63,2,2,0,0,1,.71-.4,3.009,3.009,0,0,1,.43-.11,2.528,2.528,0,0,1,.48-.03,2.622,2.622,0,0,1,.73.1,2.539,2.539,0,0,1,.67.3Zm-2.43,2.56A1.411,1.411,0,0,0,81,23.99a1.32,1.32,0,0,0,.38,1.02,1.446,1.446,0,0,0,1.02.34,1.22,1.22,0,0,0,1.4-1.36,1.348,1.348,0,0,0-.37-1.04,1.46,1.46,0,0,0-1.03-.35A1.34,1.34,0,0,0,81.36,22.97Z" fill="#7fae41"/>
      <path id="Path_1562" data-name="Path 1562" d="M89.56,19.07a1.166,1.166,0,0,1,.52-.2,3.836,3.836,0,0,1,.67-.04,1.64,1.64,0,0,1,.65.13,2.122,2.122,0,0,1,.56.35,1.666,1.666,0,0,1,.37.51,1.347,1.347,0,0,1,.14.59v3.74a2.4,2.4,0,0,1-.65,1.8h-.97a2.019,2.019,0,0,0,.48-.55,2.7,2.7,0,0,0,.15-.29,1.316,1.316,0,0,0,.08-.3c.02-.1.03-.21.04-.31s.01-.22.01-.34V20.42a.939.939,0,0,0-.14-.46,1.093,1.093,0,0,0-.36-.38.819.819,0,0,0-.47-.15,1.148,1.148,0,0,0-.56.15,1.181,1.181,0,0,0-.44.42,1.092,1.092,0,0,0-.17.62V22.4h-.86V20.62a1.194,1.194,0,0,0-.17-.61,1.262,1.262,0,0,0-.43-.43.945.945,0,0,0-.28-.12,1.143,1.143,0,0,0-.28-.03.843.843,0,0,0-.47.15,1.375,1.375,0,0,0-.38.38.407.407,0,0,0-.06.11.564.564,0,0,0-.04.12.516.516,0,0,0-.02.11v3.85a2.929,2.929,0,0,0,.15.96,2.125,2.125,0,0,0,.59.84h-.95a1.953,1.953,0,0,1-.32-.39,2.047,2.047,0,0,1-.2-.45,3.655,3.655,0,0,1-.14-.96V20.41a1.355,1.355,0,0,1,.25-.77,1.807,1.807,0,0,1,.64-.59,1.737,1.737,0,0,1,.82-.22l.38.01.3.03a1.513,1.513,0,0,1,.55.22,1.586,1.586,0,0,1,.49.53A1.851,1.851,0,0,1,89.56,19.07Z" fill="#7fae41"/>
      <path id="Path_1563" data-name="Path 1563" d="M94.27,19.05v5.02a1.294,1.294,0,0,0,.04.35,1.321,1.321,0,0,0,.1.3,1.084,1.084,0,0,0,.45.45,1.69,1.69,0,0,0,.81.16,1.465,1.465,0,0,0,1.09-.32,1.305,1.305,0,0,0,.31-.96,2.415,2.415,0,0,0-.03-.4,1.006,1.006,0,0,0-.08-.26,1.155,1.155,0,0,0-.28-.36l-.17-.13-.14-.13a.434.434,0,0,1-.15-.31.785.785,0,0,1,.02-.14.573.573,0,0,1,.04-.14.456.456,0,0,1,.15-.22h.86a.305.305,0,0,0-.16.19.744.744,0,0,0-.05.22.323.323,0,0,0,.13.27l.31.25a1.1,1.1,0,0,1,.29.39,1.859,1.859,0,0,1,.12.75,1.935,1.935,0,0,1-.06.49,2.239,2.239,0,0,1-.19.46,1.694,1.694,0,0,1-.77.67,2.867,2.867,0,0,1-1.23.25,2.726,2.726,0,0,1-1.21-.25,1.86,1.86,0,0,1-.78-.68,1.751,1.751,0,0,1-.27-.95V19h.85Z" fill="#7fae41"/>
      <path id="Path_1564" data-name="Path 1564" d="M104.03,18.83c.16,0,.3.01.41.02s.2.03.27.05.13.03.17.04a1.834,1.834,0,0,1,.68.35,1.625,1.625,0,0,1,.46.64,2.579,2.579,0,0,1,.16.98,2.363,2.363,0,0,1-.28,1.25,1.527,1.527,0,0,1-.76.64,3.094,3.094,0,0,1-1.1.18,2.283,2.283,0,0,1-1.61-.5,2.219,2.219,0,0,1-.54-1.66,1.336,1.336,0,0,0-.19-.72,1.552,1.552,0,0,0-.46-.49.911.911,0,0,0-.51-.17.8.8,0,0,0-.73.45,3.018,3.018,0,0,0-.04,2.31,1.742,1.742,0,0,0,.56.71,5.837,5.837,0,0,0,2.07.82,9.941,9.941,0,0,1,2.19.73,2.442,2.442,0,0,1,1.17,1.5h-1.06a1.734,1.734,0,0,0-.79-1,4.054,4.054,0,0,0-1.38-.53c-.18-.04-.33-.07-.47-.09s-.24-.04-.33-.05a5.539,5.539,0,0,0-.78-.06l-1.07-.03h-.74v-.59h1.07a.926.926,0,0,1-.66-.42,3.84,3.84,0,0,1-.6-1.04,4.844,4.844,0,0,1-.19-.58,1.259,1.259,0,0,1-.04-.27,2.09,2.09,0,0,1-.01-.25A2.922,2.922,0,0,1,99.1,20a1.889,1.889,0,0,1,.62-.82,1.619,1.619,0,0,1,1.01-.31,1.729,1.729,0,0,1,.82.23,2.263,2.263,0,0,1,.69.56A2.007,2.007,0,0,1,104.03,18.83Zm-.97.98a1.689,1.689,0,0,0-.31,1.11,2.652,2.652,0,0,0,.09.75,1.16,1.16,0,0,0,.26.46.931.931,0,0,0,.4.22,2.09,2.09,0,0,0,.53.06,1.34,1.34,0,0,0,.95-.33,1.576,1.576,0,0,0,.35-1.16c0-.99-.43-1.48-1.3-1.48A1.189,1.189,0,0,0,103.06,19.81Z" fill="#7fae41"/>
      <path id="Path_1565" data-name="Path 1565" d="M108.13,19.05h.86v.48a.987.987,0,0,0,.27.77,4.4,4.4,0,0,0,.4.31l.62.41a4.175,4.175,0,0,1,1.12,1.01,2.445,2.445,0,0,1,.36,1.42,2.971,2.971,0,0,1-.04.54,2.417,2.417,0,0,1-.13.48,2.223,2.223,0,0,1-.48.78,2.064,2.064,0,0,1-.74.5,1.856,1.856,0,0,1-.46.13,2.667,2.667,0,0,1-.5.04,2.247,2.247,0,0,1-.58-.07,2.791,2.791,0,0,1-.55-.2,2.345,2.345,0,0,1-.88-.74,1.84,1.84,0,0,1-.26-.5,1.993,1.993,0,0,1-.08-.56,2.867,2.867,0,0,1,.08-.74.56.56,0,0,1,.25-.36h.85a.657.657,0,0,0-.25.38c-.02.05-.03.09-.04.11s-.01.09-.02.2l-.01.41a1.125,1.125,0,0,0,.02.2c.01.05.02.1.03.14a2.135,2.135,0,0,0,.16.35,1.869,1.869,0,0,0,.56.56,1.348,1.348,0,0,0,.73.21,1.287,1.287,0,0,0,1.11-.54,2.2,2.2,0,0,0,.39-1.33,1.984,1.984,0,0,0-.36-1.29,3.735,3.735,0,0,0-1.05-.83,4.87,4.87,0,0,1-1.02-.71,1.4,1.4,0,0,1-.34-1.04v-.52Z" fill="#7fae41"/>
      <path id="Path_1566" data-name="Path 1566" d="M119.09,22.71a1.236,1.236,0,0,1,.28.77,2.469,2.469,0,0,1-.32,1.22,2.2,2.2,0,0,1-1.05.9,4.3,4.3,0,0,1-1.85.35,3.179,3.179,0,0,1-2.68-.98,3.827,3.827,0,0,1-.74-2.37c0-.1,0-.21.01-.33s.02-.22.03-.31c.03-.23.07-.45.12-.67a6.937,6.937,0,0,1,.48-1.29,3.18,3.18,0,0,1,.65-.93h.85c-.13.17-.25.33-.35.48s-.19.3-.27.44a4.986,4.986,0,0,0-.4.85,5.169,5.169,0,0,0-.22.86,5.374,5.374,0,0,0-.06.9,3.753,3.753,0,0,0,.24,1.37,2.059,2.059,0,0,0,.83,1,2.894,2.894,0,0,0,1.6.38,2.544,2.544,0,0,0,1.64-.49,1.558,1.558,0,0,0,.62-1.27.961.961,0,0,0-.21-.61,1.372,1.372,0,0,0-.55-.42,1.861,1.861,0,0,0-.75-.15h-.62v-.6H117a3.268,3.268,0,0,0,.57-.05,1.652,1.652,0,0,0,.41-.13.635.635,0,0,0,.33-.61.6.6,0,0,0-.25-.55,2.788,2.788,0,0,0-.72-.31,2.035,2.035,0,0,1-.72-.32.727.727,0,0,1-.23-.6v-.18h.86v.18a.369.369,0,0,0,.18.37,5.753,5.753,0,0,0,.7.25,2.011,2.011,0,0,1,.79.41,1.018,1.018,0,0,1,.26.75,1,1,0,0,1-.23.66,1.733,1.733,0,0,1-.6.44A2.1,2.1,0,0,1,119.09,22.71Z" fill="#7fae41"/>
      <path id="Path_1567" data-name="Path 1567" d="M122.85,21.8a1.124,1.124,0,0,0,.32-.04,1.877,1.877,0,0,0,.3-.12,1.477,1.477,0,0,0,.49-.43.845.845,0,0,0,.18-.48,1.191,1.191,0,0,0-.2-.66,1.357,1.357,0,0,0-.52-.46,1.449,1.449,0,0,0-.67-.17,1.342,1.342,0,0,0-.35.04,2.129,2.129,0,0,0-.33.11,1.444,1.444,0,0,0-.51.39.829.829,0,0,0-.19.54v.5h-.86v-.5a1.087,1.087,0,0,1,.01-.18c.01-.06.02-.12.03-.17a1.424,1.424,0,0,1,.05-.16,1.164,1.164,0,0,1,.06-.15,2.034,2.034,0,0,1,.47-.54,1.966,1.966,0,0,1,.71-.35,3.261,3.261,0,0,1,.9-.13,2.844,2.844,0,0,1,1.15.23,1.9,1.9,0,0,1,.8.64,1.6,1.6,0,0,1,.29.93,1.512,1.512,0,0,1-.26.84,1.973,1.973,0,0,1-.7.64,1.943,1.943,0,0,1,.51.43,2.32,2.32,0,0,1,.33.53,1.523,1.523,0,0,1,.11.6,2.186,2.186,0,0,1-.3,1.12,2.3,2.3,0,0,1-.83.84,2.4,2.4,0,0,1-1.23.32,2.586,2.586,0,0,1-1.22-.29,2.16,2.16,0,0,1-.84-.77,1.885,1.885,0,0,1-.3-1.01,2.182,2.182,0,0,1,.07-.5.905.905,0,0,1,.21-.41h.86a.862.862,0,0,0-.21.43.93.93,0,0,0-.04.13c-.01.04-.01.08-.03.15l-.01.24a1.529,1.529,0,0,0,.17.69,1.464,1.464,0,0,0,.52.53,1.523,1.523,0,0,0,.81.2,1.347,1.347,0,0,0,1.1-.49,1.651,1.651,0,0,0,.4-1.09,1.853,1.853,0,0,0-.12-.64,1.011,1.011,0,0,0-.4-.52,1.332,1.332,0,0,0-.78-.21v-.6Z" fill="#7fae41"/>
      <path id="Path_1568" data-name="Path 1568" d="M127.54,19.71a1.542,1.542,0,0,0-.48.69,2.708,2.708,0,0,0-.13.44,1.9,1.9,0,0,0-.05.39c-.02.23-.04.55-.04.97,0,.36.02.71.05,1.05s.09.7.16,1.07a3.929,3.929,0,0,0,.65,1.63h-.86a3.648,3.648,0,0,1-.64-1.62,10.877,10.877,0,0,1-.22-2.14c0-.08,0-.2.01-.35s.01-.26.01-.34l.04-.57a3.369,3.369,0,0,1,.29-1.01,1.837,1.837,0,0,1,.74-.8,2.732,2.732,0,0,1,1.39-.3,2.613,2.613,0,0,1,1.38.31,1.9,1.9,0,0,1,.74.78,2.621,2.621,0,0,1,.2.52,2.106,2.106,0,0,1,.06.24.974.974,0,0,1,.02.24,4.753,4.753,0,0,1,.04.56c.01.21.01.44.01.7l-.03.47c-.01.11-.02.21-.02.29v.24a3.736,3.736,0,0,1-.05.54l-.1.54c-.03.17-.07.33-.11.48a4.26,4.26,0,0,1-.15.47,2.038,2.038,0,0,1-.39.71h-.86a3.2,3.2,0,0,0,.51-1.03c.07-.22.12-.44.17-.67a7.146,7.146,0,0,0,.1-.71,13.473,13.473,0,0,0,.08-1.35l-.03-.64v-.32a3.836,3.836,0,0,0-.18-.83,1.543,1.543,0,0,0-.48-.7,1.378,1.378,0,0,0-.9-.26A1.482,1.482,0,0,0,127.54,19.71Z" fill="#7fae41"/>
      <path id="Path_1569" data-name="Path 1569" d="M136.93,19.83a1.847,1.847,0,0,0-.21.45,1.23,1.23,0,0,0-.05.25,2.35,2.35,0,0,0-.01.28v3.17a1.558,1.558,0,0,1-.34.98,2.355,2.355,0,0,1-.9.71,2.656,2.656,0,0,1-1.12.26,2.527,2.527,0,0,1-1.12-.27,2.562,2.562,0,0,1-.9-.71,1.526,1.526,0,0,1-.25-.47,1.436,1.436,0,0,1-.08-.51V20.82a1.6,1.6,0,0,1,.35-1,2.609,2.609,0,0,1,.9-.73,2.356,2.356,0,0,1,2.15-.04,2.63,2.63,0,0,1,.83.59,2.31,2.31,0,0,1,.4-.42,1.035,1.035,0,0,1,.26-.17.826.826,0,0,1,.13-.07c.04-.02.1-.04.15-.06a1.8,1.8,0,0,1,.62-.11,2.047,2.047,0,0,1,.9.21,1.981,1.981,0,0,1,.73.58,1.232,1.232,0,0,1,.28.79v3.95a2.808,2.808,0,0,1-.17.92,1.245,1.245,0,0,1-.47.67h-.85a1.44,1.44,0,0,0,.48-.69,2.543,2.543,0,0,0,.13-.45,2.119,2.119,0,0,0,.04-.44V20.4a.757.757,0,0,0-.16-.46,1.453,1.453,0,0,0-.41-.37.95.95,0,0,0-.5-.14A.938.938,0,0,0,136.93,19.83Zm-3.36-.18a1.713,1.713,0,0,0-.57.53,1.172,1.172,0,0,0-.21.66v3.15a1.257,1.257,0,0,0,.05.33,1.305,1.305,0,0,0,.16.34,1.715,1.715,0,0,0,.25.28,2.322,2.322,0,0,0,.3.22,1.529,1.529,0,0,0,.74.18,1.511,1.511,0,0,0,.74-.19,1.447,1.447,0,0,0,.56-.51,1.2,1.2,0,0,0,.21-.66V20.8a1.552,1.552,0,0,0-.05-.35,2.446,2.446,0,0,0-.16-.33,1.5,1.5,0,0,0-.56-.5,1.4,1.4,0,0,0-1.46.03Z" fill="#7fae41"/>
      <path id="Path_1570" data-name="Path 1570" d="M142.12,19.71a1.4,1.4,0,0,0-.48.69,2.708,2.708,0,0,0-.13.44,1.9,1.9,0,0,0-.05.39c-.02.23-.03.55-.03.97,0,.36.02.71.05,1.05s.09.7.16,1.07a3.929,3.929,0,0,0,.65,1.63h-.86a3.648,3.648,0,0,1-.64-1.62,10.877,10.877,0,0,1-.22-2.14c0-.08,0-.2.01-.35s.01-.26.01-.34l.03-.57a3.687,3.687,0,0,1,.29-1.01,1.837,1.837,0,0,1,.74-.8,2.732,2.732,0,0,1,1.39-.3,2.613,2.613,0,0,1,1.38.31,1.9,1.9,0,0,1,.74.78,2.621,2.621,0,0,1,.2.52,2.106,2.106,0,0,1,.06.24.974.974,0,0,1,.02.24c.02.17.03.36.04.56s.01.44.01.7l-.03.47c-.01.11-.02.21-.02.29v.24a3.736,3.736,0,0,1-.05.54l-.1.54c-.03.17-.07.33-.11.48a4.26,4.26,0,0,1-.15.47,2.038,2.038,0,0,1-.39.71h-.86a3.2,3.2,0,0,0,.51-1.03c.07-.22.12-.44.17-.67a7.146,7.146,0,0,0,.1-.71,13.473,13.473,0,0,0,.08-1.35l-.03-.64v-.32a3.836,3.836,0,0,0-.18-.83,1.47,1.47,0,0,0-.48-.7,1.378,1.378,0,0,0-.9-.26A1.481,1.481,0,0,0,142.12,19.71Z" fill="#7fae41"/>
    </g>
    <g id="Group_1659" data-name="Group 1659" transform="translate(136.68 34.94)">
      <path id="Path_1571" data-name="Path 1571" d="M59.85,37.59a.874.874,0,0,1,.21.57,1.651,1.651,0,0,1-.25.9,1.748,1.748,0,0,1-.8.67,3.381,3.381,0,0,1-1.41.26,2.481,2.481,0,0,1-2.05-.72,2.738,2.738,0,0,1-.56-1.75,2.094,2.094,0,0,1,.01-.24c.01-.09.01-.17.02-.23.02-.17.06-.33.09-.49a5.18,5.18,0,0,1,.37-.96,2.365,2.365,0,0,1,.5-.69h.65a3.494,3.494,0,0,0-.26.35c-.08.11-.14.22-.21.33a3.669,3.669,0,0,0-.31.63,2.858,2.858,0,0,0-.16.64,4.913,4.913,0,0,0-.05.67,2.711,2.711,0,0,0,.18,1.01,1.549,1.549,0,0,0,.63.74,2.273,2.273,0,0,0,1.22.28,2,2,0,0,0,1.25-.36,1.134,1.134,0,0,0,.47-.94.672.672,0,0,0-.16-.45,1.1,1.1,0,0,0-.42-.31,1.537,1.537,0,0,0-.58-.11h-.47v-.45h.47a2,2,0,0,0,.44-.04,1.026,1.026,0,0,0,.31-.1.465.465,0,0,0,.25-.45.443.443,0,0,0-.19-.41,1.964,1.964,0,0,0-.55-.23,1.688,1.688,0,0,1-.55-.24.518.518,0,0,1-.18-.44V34.9h.65v.13a.266.266,0,0,0,.14.27,3.587,3.587,0,0,0,.54.18,1.522,1.522,0,0,1,.6.3.725.725,0,0,1,.2.55.768.768,0,0,1-.17.49,1.305,1.305,0,0,1-.46.32A1.906,1.906,0,0,1,59.85,37.59Z" fill="#7fae41"/>
      <path id="Path_1572" data-name="Path 1572" d="M61.74,35.38a1.73,1.73,0,0,1,.65-.47,1.954,1.954,0,0,1,.8-.17.808.808,0,0,1,.16.01.772.772,0,0,1,.15.02c.1.02.2.04.3.07a1.959,1.959,0,0,1,.56.28,1.409,1.409,0,0,1,.39.42,1.085,1.085,0,0,1,.15.53v2.48a1.185,1.185,0,0,1-.26.73,1.772,1.772,0,0,1-.69.53,2.049,2.049,0,0,1-.85.19,1.923,1.923,0,0,1-1.55-.83,1.362,1.362,0,0,1-.25-.78,2.641,2.641,0,0,1,.02-.29,1.04,1.04,0,0,1,.02-.15.606.606,0,0,1,.14-.28h.65a1.384,1.384,0,0,0-.18.81.531.531,0,0,0,.01.14c.01.03.04.06.04.09a1.955,1.955,0,0,0,.12.26,1.561,1.561,0,0,0,.43.42,1.1,1.1,0,0,0,.56.16,1.222,1.222,0,0,0,.56-.14,1.129,1.129,0,0,0,.43-.38.842.842,0,0,0,.16-.49V36.06a.7.7,0,0,0-.16-.43,1.11,1.11,0,0,0-.41-.33.677.677,0,0,0-.23-.09.63.63,0,0,1-.13-.03.536.536,0,0,0-.13,0,1.065,1.065,0,0,0-.48.12,1.2,1.2,0,0,0-.41.33.677.677,0,0,0-.16.43v.42H61.5v-.42A.965.965,0,0,1,61.74,35.38Z" fill="#7fae41"/>
      <path id="Path_1573" data-name="Path 1573" d="M69.47,34.73v.3a.489.489,0,0,1-.23.47,1.247,1.247,0,0,1-.58.12l-.22-.01-.16-.03a1.085,1.085,0,0,1-.28-.11,1.024,1.024,0,0,0-.27-.11.9.9,0,0,0-.31-.04.572.572,0,0,0-.42.13.392.392,0,0,0-.14.31v1.61a1.521,1.521,0,0,1,1.07-.3,2.34,2.34,0,0,1,.38.03,2.662,2.662,0,0,1,.33.08,1.629,1.629,0,0,1,.55.32,1.413,1.413,0,0,1,.34.46,1.388,1.388,0,0,1,.12.57,1.348,1.348,0,0,1-.22.78,1.368,1.368,0,0,1-.61.5,2.161,2.161,0,0,1-.41.13,2.327,2.327,0,0,1-.48.04,1.62,1.62,0,0,1-.22-.01l-.21-.03a1.6,1.6,0,0,1-.21-.05,1.45,1.45,0,0,1-.19-.06,1.575,1.575,0,0,1-.65-.45.987.987,0,0,1-.24-.65V35.76a.753.753,0,0,1,.15-.44,1.014,1.014,0,0,1,.41-.32,1.133,1.133,0,0,1,.28-.09,2.88,2.88,0,0,1,.32-.02,1.673,1.673,0,0,1,.34.02c.09.02.17.03.23.04l.15.04.12.02a.487.487,0,0,0,.12.01h.13l.27-.01.21-.02c.07-.01.13-.03.18-.04a.383.383,0,0,0,.11-.05.224.224,0,0,0,.11-.18h.13Zm-2.17,2.9a.684.684,0,0,0-.34.33,1.044,1.044,0,0,0-.08.25,1.62,1.62,0,0,0-.02.33,1.029,1.029,0,0,0,.13.54.892.892,0,0,0,.37.35,1.247,1.247,0,0,0,.56.12,1.075,1.075,0,0,0,.83-.27,1.037,1.037,0,0,0,.25-.74,1.411,1.411,0,0,0-.11-.59.683.683,0,0,0-.34-.33,1.494,1.494,0,0,0-.61-.1A1.53,1.53,0,0,0,67.3,37.63Z" fill="#7fae41"/>
      <path id="Path_1574" data-name="Path 1574" d="M74.7,37.37a.656.656,0,0,1-.18.44,1.305,1.305,0,0,1-.46.32,2.128,2.128,0,0,1-.27.09,1.007,1.007,0,0,1-.25.03,1.336,1.336,0,0,1-.51-.12,1.263,1.263,0,0,1-.45-.32.65.65,0,0,1-.17-.43.809.809,0,0,1,.16-.54,1.16,1.16,0,0,1,.44-.33.8.8,0,0,1-.6-.88.738.738,0,0,1,.33-.68,1.456,1.456,0,0,1,.79-.21,1.669,1.669,0,0,1,.55.09.94.94,0,0,1,.43.29.771.771,0,0,1,.16.52.877.877,0,0,1-.32.72,1.882,1.882,0,0,1,.72.13,1.826,1.826,0,0,1,.58.36,1.658,1.658,0,0,1,.37.56,2.273,2.273,0,0,1,.13.78,1.562,1.562,0,0,1-.31.97,1.886,1.886,0,0,1-.89.64,4.018,4.018,0,0,1-1.43.22c-.1,0-.21,0-.32-.01s-.21-.02-.29-.03c-.19-.03-.36-.06-.53-.1a2.6,2.6,0,0,1-.82-.37,1.6,1.6,0,0,1-.49-.58,1.859,1.859,0,0,1-.17-.81,2.464,2.464,0,0,1,.02-.26l.06-.32a3.265,3.265,0,0,1,.25-.65.841.841,0,0,1,.32-.38h.65a1.324,1.324,0,0,0-.46.68,2.7,2.7,0,0,0-.19.93,1.361,1.361,0,0,0,.24.83,1.4,1.4,0,0,0,.69.47,3.238,3.238,0,0,0,1.03.15c.15,0,.29-.01.43-.02a2.318,2.318,0,0,0,.38-.06,1.961,1.961,0,0,0,.64-.27,1.168,1.168,0,0,0,.4-.43,1.264,1.264,0,0,0,.13-.6,2.145,2.145,0,0,0-.07-.58,2.558,2.558,0,0,0-.09-.26,1.034,1.034,0,0,0-.11-.21.951.951,0,0,0-.35-.34,1,1,0,0,0-.5-.13A.722.722,0,0,1,74.7,37.37Zm-1.73-1.36a.538.538,0,0,0,.21.19c.04.02.09.04.15.07a1.267,1.267,0,0,0,.18.06.714.714,0,0,0,.5-.18.589.589,0,0,0,.19-.46.266.266,0,0,0-.03-.12.609.609,0,0,0-.33-.32.658.658,0,0,0-.3-.07.754.754,0,0,0-.33.07.581.581,0,0,0-.24.19.384.384,0,0,0-.08.24A.671.671,0,0,0,72.97,36.01Zm.08.9a.472.472,0,0,0-.16.39.446.446,0,0,0,.17.36.458.458,0,0,0,.21.1,1.143,1.143,0,0,0,.28.03.753.753,0,0,0,.49-.14.438.438,0,0,0,.16-.36.511.511,0,0,0-.18-.43,1.314,1.314,0,0,0-.49-.21A1.748,1.748,0,0,0,73.05,36.91Z" fill="#7fae41"/>
      <path id="Path_1575" data-name="Path 1575" d="M80.62,37.19c.06-.02.11-.04.17-.06s.11-.03.17-.04a.932.932,0,0,1,.14-.02h.18a1.306,1.306,0,0,1,1.05.41,1.481,1.481,0,0,1,.34.98,2.317,2.317,0,0,1-.07.56,3.942,3.942,0,0,1-.18.55,2.679,2.679,0,0,1-.12.24,1.4,1.4,0,0,1-.12.18h-.74a2.142,2.142,0,0,0,.42-.7,2.388,2.388,0,0,0,.16-.82,1.548,1.548,0,0,0-.09-.49,1.01,1.01,0,0,0-.28-.44.662.662,0,0,0-.45-.17.718.718,0,0,0-.42.13.839.839,0,0,0-.29.33.9.9,0,0,0-.11.41v.58h-.65v-.58a1.024,1.024,0,0,0-.09-.42.885.885,0,0,0-.28-.33.772.772,0,0,0-.43-.12.688.688,0,0,0-.46.17.977.977,0,0,0-.28.43.647.647,0,0,0-.04.13l-.03.12c-.01.04-.01.08-.02.11v.13l.01.31.02.25c.02.08.04.16.07.25a1.861,1.861,0,0,0,.1.25,1.474,1.474,0,0,0,.37.46h-.72a1.309,1.309,0,0,1-.27-.38,1.712,1.712,0,0,1-.09-.22q-.03-.1-.06-.24l-.06-.34-.01-.27-.01-.26-.01-.33a1.658,1.658,0,0,1,.47-1.24,3.447,3.447,0,0,1,1.12-.73l1.26-.52q.6-.27.6-.57h.64a.89.89,0,0,1-.41.74,4.742,4.742,0,0,1-1.21.57,10.884,10.884,0,0,0-1.19.48.694.694,0,0,0-.44.53,1.4,1.4,0,0,1,.27-.09,1.18,1.18,0,0,1,.2-.04,1.929,1.929,0,0,1,.25-.01l.22.01.21.04a1.448,1.448,0,0,1,.38.16,1.3,1.3,0,0,1,.28.22A1.721,1.721,0,0,1,80.62,37.19Z" fill="#7fae41"/>
      <path id="Path_1576" data-name="Path 1576" d="M84.44,35.38a1.127,1.127,0,0,0-.37.51,2.326,2.326,0,0,0-.1.32,1.551,1.551,0,0,0-.04.29,6.572,6.572,0,0,0-.03.72,6.678,6.678,0,0,0,.04.78c.03.25.07.52.12.79A2.963,2.963,0,0,0,84.55,40H83.9a2.655,2.655,0,0,1-.49-1.2,8.105,8.105,0,0,1-.17-1.58c0-.06,0-.14.01-.26s.01-.19.01-.25l.03-.42a2.707,2.707,0,0,1,.22-.75,1.35,1.35,0,0,1,.57-.59,2.117,2.117,0,0,1,1.06-.22,2.164,2.164,0,0,1,1.06.23,1.3,1.3,0,0,1,.56.58,2.139,2.139,0,0,1,.16.39,1.163,1.163,0,0,1,.04.18,1.087,1.087,0,0,1,.01.18,2.673,2.673,0,0,1,.03.42c.01.15.01.33.01.52l-.01.33c-.01.08-.01.15-.02.21v.17a2,2,0,0,1-.04.4l-.08.4a2.369,2.369,0,0,1-.09.36,2.415,2.415,0,0,1-.12.35,1.721,1.721,0,0,1-.3.53h-.66a2.358,2.358,0,0,0,.39-.76c.05-.16.09-.33.13-.49a4.048,4.048,0,0,0,.08-.52,9.194,9.194,0,0,0,.06-1l-.02-.47V36.5a2.464,2.464,0,0,0-.14-.61,1.01,1.01,0,0,0-1.06-.71A1.05,1.05,0,0,0,84.44,35.38Z" fill="#7fae41"/>
    </g>
    <g id="Group_1660" data-name="Group 1660" transform="translate(136.68 34.94)">
      <path id="Path_1577" data-name="Path 1577" d="M55.65,28.59a.881.881,0,0,0-.27.38,1.088,1.088,0,0,0-.07.24,2.111,2.111,0,0,0-.03.21c-.01.13-.02.3-.02.53a5.49,5.49,0,0,0,.03.58c.02.19.05.38.09.59a2.113,2.113,0,0,0,.36.89h-.47a2.026,2.026,0,0,1-.35-.89,6.115,6.115,0,0,1-.12-1.17v-.37l.02-.31a1.949,1.949,0,0,1,.16-.55,1.02,1.02,0,0,1,.41-.44,1.522,1.522,0,0,1,.77-.16,1.475,1.475,0,0,1,.76.17.943.943,0,0,1,.41.43,1.31,1.31,0,0,1,.11.29c.01.04.02.09.03.13a.57.57,0,0,1,.01.13,2.851,2.851,0,0,1,.02.31c0,.11.01.24.01.38l-.01.26a.915.915,0,0,0-.01.16v.13a1.69,1.69,0,0,1-.03.3l-.06.3c-.02.09-.04.18-.06.26s-.05.17-.08.26a1.025,1.025,0,0,1-.22.39h-.47a1.633,1.633,0,0,0,.28-.56,2.369,2.369,0,0,0,.09-.36q.03-.18.06-.39a6.7,6.7,0,0,0,.04-.74l-.01-.35v-.18a2.112,2.112,0,0,0-.1-.45.739.739,0,0,0-.77-.52A.878.878,0,0,0,55.65,28.59Z" fill="#231f20"/>
      <path id="Path_1578" data-name="Path 1578" d="M60.45,28.12v.22c0,.17-.05.29-.16.34a.871.871,0,0,1-.42.09l-.16-.01-.12-.02a.836.836,0,0,1-.2-.08.973.973,0,0,0-.19-.08.646.646,0,0,0-.22-.03.429.429,0,0,0-.31.1.3.3,0,0,0-.1.23v1.19a1.074,1.074,0,0,1,.77-.22,2.13,2.13,0,0,1,.27.02,1.4,1.4,0,0,1,.24.06,1.218,1.218,0,0,1,.4.24.94.94,0,0,1,.25.34.99.99,0,0,1,.09.42,1.033,1.033,0,0,1-.16.58.938.938,0,0,1-.44.37,1.2,1.2,0,0,1-.29.09,3.461,3.461,0,0,1-.37.03.86.86,0,0,1-.16-.01c-.05-.01-.1-.01-.15-.02a.833.833,0,0,1-.15-.04,1.026,1.026,0,0,0-.14-.04,1.107,1.107,0,0,1-.47-.33.76.76,0,0,1-.17-.48v-2.2a.562.562,0,0,1,.11-.32.663.663,0,0,1,.29-.23.961.961,0,0,1,.2-.07,1.516,1.516,0,0,1,.23-.02,1.852,1.852,0,0,1,.25.01c.06.01.12.02.16.03l.11.03.09.02a.249.249,0,0,0,.08.01h.09l.2-.01.15-.01c.05-.01.09-.02.13-.03a.151.151,0,0,0,.08-.04.17.17,0,0,0,.08-.13h.11Zm-1.57,2.14a.507.507,0,0,0-.25.25.592.592,0,0,0-.05.19,1.659,1.659,0,0,0-.02.24.744.744,0,0,0,.1.4.676.676,0,0,0,.27.26.872.872,0,0,0,.4.09.787.787,0,0,0,.6-.2.762.762,0,0,0,.17-.54,1.081,1.081,0,0,0-.08-.44.507.507,0,0,0-.25-.25,1.1,1.1,0,0,0-.44-.07A.765.765,0,0,0,58.88,30.26Z" fill="#231f20"/>
      <path id="Path_1579" data-name="Path 1579" d="M63.1,31.32a.855.855,0,0,0,.29.19,2.278,2.278,0,0,0,.89.17c.85,0,1.27-.29,1.27-.86,0-.5-.33-.74-.99-.74v-.33a3.43,3.43,0,0,0,.5-.03.568.568,0,0,0,.34-.18.559.559,0,0,0,.14-.43c0-.44-.23-.65-.7-.65a1.134,1.134,0,0,0-.25.03,1.715,1.715,0,0,0-.26.1,1.132,1.132,0,0,0-.4.31.654.654,0,0,1,.04.21,1.048,1.048,0,0,1-.15.54,1,1,0,0,1-.46.39,1.872,1.872,0,0,1-.8.15.972.972,0,0,1-.18-.01.875.875,0,0,1-.16-.02l-.16-.03c-.05-.01-.09-.02-.13-.03a1.35,1.35,0,0,1-.45-.22.752.752,0,0,1-.26-.33.881.881,0,0,1-.08-.39.955.955,0,0,1,.15-.52.986.986,0,0,1,.48-.38,2.031,2.031,0,0,1,.79-.14,1.923,1.923,0,0,1,.69.12,1.308,1.308,0,0,1,.5.32,2.019,2.019,0,0,1,.51-.33,1.38,1.38,0,0,1,.57-.11,1.655,1.655,0,0,1,.32.03,1.213,1.213,0,0,1,.3.11,1.158,1.158,0,0,1,.47.36.743.743,0,0,1,.17.48.782.782,0,0,1-.18.49.883.883,0,0,1-.52.31.965.965,0,0,1,.44.23.744.744,0,0,1,.2.32,1.07,1.07,0,0,1,.05.37.528.528,0,0,1-.01.13.79.79,0,0,1-.03.13.917.917,0,0,1-.09.23,1.215,1.215,0,0,1-.37.38,1.609,1.609,0,0,1-.58.24,1.01,1.01,0,0,1-.19.04,1.1,1.1,0,0,1-.18.02,3.232,3.232,0,0,1-.35.01,3.5,3.5,0,0,1-.74-.08,2.3,2.3,0,0,1-.58-.2,1.328,1.328,0,0,1-.38-.3.539.539,0,0,1-.13-.34.545.545,0,0,1,.2-.48h.57a.6.6,0,0,0-.21.48A.358.358,0,0,0,63.1,31.32Zm-1.38-2.17a.7.7,0,0,0,.2.49.876.876,0,0,0,.65.21,1.33,1.33,0,0,0,.42-.06.482.482,0,0,0,.25-.17.794.794,0,0,0,.13-.26,1.079,1.079,0,0,0,.04-.32.564.564,0,0,0-.17-.43,1.05,1.05,0,0,0-.67-.16C62.01,28.45,61.72,28.68,61.72,29.15Z" fill="#231f20"/>
      <path id="Path_1580" data-name="Path 1580" d="M68.84,28.25a.693.693,0,0,1,.29-.11,3.12,3.12,0,0,1,.37-.02.922.922,0,0,1,.36.07,1.075,1.075,0,0,1,.31.19.69.69,0,0,1,.2.28.722.722,0,0,1,.08.32v2.04a1.284,1.284,0,0,1-.36.98h-.53a1.154,1.154,0,0,0,.34-.46.913.913,0,0,0,.07-.33c0-.06.01-.12.01-.19V28.98a.49.49,0,0,0-.08-.25.8.8,0,0,0-.2-.21.5.5,0,0,0-.26-.08.679.679,0,0,0-.56.31.64.64,0,0,0-.09.34v.97h-.47V29.1a.629.629,0,0,0-.09-.33.689.689,0,0,0-.24-.24,1.111,1.111,0,0,0-.16-.07.68.68,0,0,0-.15-.02.524.524,0,0,0-.26.08.7.7,0,0,0-.21.21c-.01.02-.03.04-.04.06a.145.145,0,0,0-.02.07.127.127,0,0,0-.01.06v2.1a1.784,1.784,0,0,0,.08.53,1.134,1.134,0,0,0,.33.46h-.52a1.045,1.045,0,0,1-.17-.21.947.947,0,0,1-.11-.25,2,2,0,0,1-.08-.52V28.99a.78.78,0,0,1,.14-.42.856.856,0,0,1,.36-.32.949.949,0,0,1,.45-.12l.21.01.16.02a.943.943,0,0,1,.3.12.847.847,0,0,1,.27.29A.751.751,0,0,1,68.84,28.25Z" fill="#231f20"/>
      <path id="Path_1581" data-name="Path 1581" d="M73.27,29.94a.564.564,0,0,1,.12-.04c.04-.01.08-.02.13-.03a.866.866,0,0,0,.1-.02h.13a.913.913,0,0,1,.76.31,1.071,1.071,0,0,1,.25.72,1.994,1.994,0,0,1-.05.41,2.46,2.46,0,0,1-.13.41c-.03.07-.06.12-.09.18a.73.73,0,0,1-.09.13h-.53a1.67,1.67,0,0,0,.31-.52,1.606,1.606,0,0,0,.11-.61,1,1,0,0,0-.07-.36.7.7,0,0,0-.2-.32.482.482,0,0,0-.32-.13.529.529,0,0,0-.3.09.611.611,0,0,0-.21.24.681.681,0,0,0-.08.31v.43h-.47v-.43a.67.67,0,0,0-.07-.31.588.588,0,0,0-.2-.24.538.538,0,0,0-.31-.09.445.445,0,0,0-.33.13.758.758,0,0,0-.2.32c-.01.03-.02.06-.03.1a.371.371,0,0,0-.02.09.248.248,0,0,0-.01.08v.33l.02.18a1.8,1.8,0,0,0,.05.19.751.751,0,0,0,.07.18.969.969,0,0,0,.27.34h-.52a.923.923,0,0,1-.19-.28.7.7,0,0,1-.06-.17.847.847,0,0,1-.04-.17l-.04-.25-.01-.2-.01-.19v-.24a1.23,1.23,0,0,1,.34-.92,2.5,2.5,0,0,1,.81-.54l.91-.39c.29-.13.43-.27.43-.42h.46a.679.679,0,0,1-.29.55,3.928,3.928,0,0,1-.87.42c-.38.14-.67.26-.86.35a.529.529,0,0,0-.32.39c.04-.02.11-.04.19-.07l.15-.03c.05,0,.11-.01.18-.01l.16.01.15.03a1.39,1.39,0,0,1,.28.12.826.826,0,0,1,.2.16A.622.622,0,0,1,73.27,29.94Z" fill="#231f20"/>
      <path id="Path_1582" data-name="Path 1582" d="M77.3,28.98a.413.413,0,0,0-.12-.28.771.771,0,0,0-.3-.19.23.23,0,0,0-.09-.03.747.747,0,0,0-.11-.02.757.757,0,0,0-.15-.01.8.8,0,0,0-.36.09.885.885,0,0,0-.3.24.5.5,0,0,0-.11.32v.21h-.47v-.27a.73.73,0,0,1,.11-.38,1,1,0,0,1,.29-.29,1.365,1.365,0,0,1,.2-.11,1.033,1.033,0,0,1,.21-.07,1.619,1.619,0,0,1,.44-.07,1.358,1.358,0,0,1,.29.03,1.816,1.816,0,0,1,.29.08,1.16,1.16,0,0,1,.48.3.613.613,0,0,1,.19.45v1.95a1.079,1.079,0,0,1-.13.54,1,1,0,0,1-.42.39,1.654,1.654,0,0,1-.72.14,1.594,1.594,0,0,1-.48-.07,1.155,1.155,0,0,1-.4-.2.969.969,0,0,1-.27-.34,1.111,1.111,0,0,1-.1-.46.947.947,0,0,1,.1-.44,1,1,0,0,1,.26-.35,1.262,1.262,0,0,1,.39-.22.938.938,0,0,1,.24-.06,2.111,2.111,0,0,1,.26-.02,1.386,1.386,0,0,1,.4.06,1.245,1.245,0,0,1,.37.17V28.98Zm-1.35,1.4a.782.782,0,0,0-.2.56.68.68,0,0,0,.21.55.793.793,0,0,0,.56.19c.52,0,.77-.25.77-.74a.74.74,0,0,0-.21-.57.8.8,0,0,0-.57-.19A.7.7,0,0,0,75.95,30.38Z" fill="#231f20"/>
      <path id="Path_1583" data-name="Path 1583" d="M78.91,28.24h.47v.26a.538.538,0,0,0,.15.42,2.455,2.455,0,0,0,.22.17l.34.23a2.3,2.3,0,0,1,.62.55,1.363,1.363,0,0,1,.2.78,2.662,2.662,0,0,1-.02.3,1.973,1.973,0,0,1-.07.26,1.206,1.206,0,0,1-.27.43,1.3,1.3,0,0,1-.41.28,1.17,1.17,0,0,1-.25.07,2.81,2.81,0,0,1-.29.01,1.124,1.124,0,0,1-.32-.04,1.536,1.536,0,0,1-.3-.11,1.372,1.372,0,0,1-.49-.4,1.038,1.038,0,0,1-.19-.58,1.448,1.448,0,0,1,.04-.4.345.345,0,0,1,.14-.2h.47a.372.372,0,0,0-.14.21.393.393,0,0,0-.02.06.8.8,0,0,0-.01.11l-.01.23a.375.375,0,0,0,.01.11c.01.03.01.05.02.08a1.067,1.067,0,0,0,.09.19,1.019,1.019,0,0,0,.31.31.763.763,0,0,0,1.01-.17,1.229,1.229,0,0,0,.22-.72,1.132,1.132,0,0,0-.2-.71,2.013,2.013,0,0,0-.58-.45,2.648,2.648,0,0,1-.56-.39.756.756,0,0,1-.19-.57v-.32Z" fill="#231f20"/>
      <path id="Path_1584" data-name="Path 1584" d="M84.96,30.23a.676.676,0,0,1,.15.42,1.259,1.259,0,0,1-.18.66,1.242,1.242,0,0,1-.58.49,2.138,2.138,0,0,1-1.01.2,1.769,1.769,0,0,1-1.48-.53,2.1,2.1,0,0,1-.41-1.3,1.213,1.213,0,0,1,.01-.18.881.881,0,0,1,.02-.17c.02-.13.04-.25.07-.37a4.2,4.2,0,0,1,.26-.71,1.864,1.864,0,0,1,.36-.51h.47c-.07.09-.14.18-.19.26s-.1.16-.15.24a2.484,2.484,0,0,0-.22.47,1.91,1.91,0,0,0-.12.47,4.027,4.027,0,0,0-.03.49,2.039,2.039,0,0,0,.13.75,1.162,1.162,0,0,0,.46.55,1.628,1.628,0,0,0,.89.21,1.429,1.429,0,0,0,.91-.27.84.84,0,0,0,.34-.7.568.568,0,0,0-.11-.33.756.756,0,0,0-.3-.23,1.122,1.122,0,0,0-.42-.08h-.34v-.33h.34a1.582,1.582,0,0,0,.32-.03.814.814,0,0,0,.22-.07.355.355,0,0,0,.18-.33.337.337,0,0,0-.14-.3,1.4,1.4,0,0,0-.4-.17,1.155,1.155,0,0,1-.4-.18.39.39,0,0,1-.13-.33v-.1h.47v.1c0,.1.03.17.1.2a2.808,2.808,0,0,0,.39.14,1.075,1.075,0,0,1,.43.22.525.525,0,0,1,.14.41.515.515,0,0,1-.13.36.832.832,0,0,1-.33.24A1.807,1.807,0,0,1,84.96,30.23Z" fill="#231f20"/>
      <path id="Path_1585" data-name="Path 1585" d="M86.48,28.59a.881.881,0,0,0-.27.38,1.089,1.089,0,0,0-.07.24,2.11,2.11,0,0,0-.03.21c-.01.13-.02.3-.02.53a5.491,5.491,0,0,0,.03.58c.02.19.05.38.09.59a2.113,2.113,0,0,0,.36.89H86.1a2.026,2.026,0,0,1-.35-.89,6.116,6.116,0,0,1-.12-1.17v-.37l.02-.31a1.949,1.949,0,0,1,.16-.55,1.02,1.02,0,0,1,.41-.44,1.522,1.522,0,0,1,.77-.16,1.475,1.475,0,0,1,.76.17.943.943,0,0,1,.41.43,1.31,1.31,0,0,1,.11.29c.01.04.02.09.03.13a.57.57,0,0,1,.01.13,2.85,2.85,0,0,1,.02.31c0,.11.01.24.01.38l-.01.26a.915.915,0,0,0-.01.16v.13a1.69,1.69,0,0,1-.03.3l-.06.3c-.02.09-.04.18-.06.26s-.05.17-.08.26a1.025,1.025,0,0,1-.22.39H87.4a1.633,1.633,0,0,0,.28-.56,2.369,2.369,0,0,0,.09-.36q.03-.18.06-.39a6.7,6.7,0,0,0,.04-.74l-.01-.35v-.18a2.112,2.112,0,0,0-.1-.45.739.739,0,0,0-.77-.52A.878.878,0,0,0,86.48,28.59Z" fill="#231f20"/>
      <path id="Path_1586" data-name="Path 1586" d="M89.77,28.59a.881.881,0,0,0-.27.38,1.089,1.089,0,0,0-.07.24,2.11,2.11,0,0,0-.03.21c-.01.13-.02.3-.02.53a5.491,5.491,0,0,0,.03.58c.02.19.05.38.09.59a2.113,2.113,0,0,0,.36.89h-.47a2.026,2.026,0,0,1-.35-.89,6.116,6.116,0,0,1-.12-1.17v-.37l.02-.31a1.949,1.949,0,0,1,.16-.55,1.02,1.02,0,0,1,.41-.44,1.522,1.522,0,0,1,.77-.16,1.475,1.475,0,0,1,.76.17.943.943,0,0,1,.41.43,1.31,1.31,0,0,1,.11.29c.01.04.02.09.03.13a.57.57,0,0,1,.01.13,2.85,2.85,0,0,1,.02.31c0,.11.01.24.01.38l-.01.26a.915.915,0,0,0-.01.16v.13a1.69,1.69,0,0,1-.03.3l-.06.3c-.02.09-.04.18-.06.26s-.05.17-.08.26a1.025,1.025,0,0,1-.22.39h-.47a1.633,1.633,0,0,0,.28-.56,2.369,2.369,0,0,0,.09-.36q.03-.18.06-.39a6.7,6.7,0,0,0,.04-.74l-.01-.35v-.18a2.112,2.112,0,0,0-.1-.45.739.739,0,0,0-.77-.52A.878.878,0,0,0,89.77,28.59Z" fill="#231f20"/>
      <path id="Path_1587" data-name="Path 1587" d="M92.68,28.24v2.74a1.108,1.108,0,0,0,.02.19.492.492,0,0,0,.06.17.6.6,0,0,0,.25.25.945.945,0,0,0,.45.09.843.843,0,0,0,.6-.17.681.681,0,0,0,.17-.52,1.5,1.5,0,0,0-.02-.22.84.84,0,0,0-.04-.14.526.526,0,0,0-.16-.2l-.09-.07-.08-.07a.243.243,0,0,1-.07-.25c.01-.03.01-.05.02-.08a.26.26,0,0,1,.08-.12h.47a.179.179,0,0,0-.09.1.346.346,0,0,0-.03.12.19.19,0,0,0,.08.15l.17.13a.546.546,0,0,1,.16.22,1.082,1.082,0,0,1,.07.41.842.842,0,0,1-.04.27.8.8,0,0,1-.11.25.928.928,0,0,1-.43.37,1.383,1.383,0,0,1-.67.14,1.436,1.436,0,0,1-.67-.14.98.98,0,0,1-.43-.37.955.955,0,0,1-.15-.52V28.23h.48Z" fill="#231f20"/>
      <path id="Path_1588" data-name="Path 1588" d="M95.83,28.24h.47v.26a.538.538,0,0,0,.15.42,2.455,2.455,0,0,0,.22.17l.34.23a2.3,2.3,0,0,1,.62.55,1.363,1.363,0,0,1,.2.78,2.662,2.662,0,0,1-.02.3,1.973,1.973,0,0,1-.07.26,1.206,1.206,0,0,1-.27.43,1.3,1.3,0,0,1-.41.28,1.17,1.17,0,0,1-.25.07,2.528,2.528,0,0,1-.28.01,1.124,1.124,0,0,1-.32-.04,1.536,1.536,0,0,1-.3-.11,1.372,1.372,0,0,1-.49-.4,1.038,1.038,0,0,1-.19-.58,1.448,1.448,0,0,1,.04-.4.345.345,0,0,1,.14-.2h.47a.372.372,0,0,0-.14.21.393.393,0,0,0-.02.06.8.8,0,0,0-.01.11l-.01.23a.375.375,0,0,0,.01.11c.01.03.01.05.02.08a1.067,1.067,0,0,0,.09.19,1.019,1.019,0,0,0,.31.31.763.763,0,0,0,1.01-.17,1.229,1.229,0,0,0,.22-.72,1.132,1.132,0,0,0-.2-.71,2.013,2.013,0,0,0-.58-.45,2.648,2.648,0,0,1-.56-.39.756.756,0,0,1-.19-.57v-.32Z" fill="#231f20"/>
    </g>
  </g>
</svg>
