<svg xmlns="http://www.w3.org/2000/svg" width="48.181" height="36.74" viewBox="0 0 48.181 36.74">
  <g id="Group_1663" data-name="Group 1663" transform="translate(-140 -41)">
    <rect id="Rectangle_2171" data-name="Rectangle 2171" width="7.44" height="0.78" transform="translate(180.74 58.65)" fill="#84b440"/>
    <rect id="Rectangle_2172" data-name="Rectangle 2172" width="7.44" height="1.09" transform="translate(180.74 56.23)" fill="#84b440"/>
    <path id="Path_1551" data-name="Path 1551" d="M23.86,31.99a4.689,4.689,0,0,1-.51-2.14V18.45a4.789,4.789,0,0,1,4.77-4.77H39.29a4.789,4.789,0,0,1,4.77,4.77v1.32H51.5V13.96a7.923,7.923,0,0,0-7.9-7.9H23.35a7.923,7.923,0,0,0-7.9,7.9V29.01c1.69.24,6.17,1.06,8.41,2.98" transform="translate(136.68 34.94)" fill="#84b440"/>
    <path id="Path_1554" data-name="Path 1554" d="M36.75,35.1c-2.7.75-7.31,2.55-8.92,7.11H43.59a7.918,7.918,0,0,0,7.89-7.53c-2.36-.05-12.35-.24-14.73.42" transform="translate(136.68 34.94)" fill="#84b440"/>
    <path id="Path_1555" data-name="Path 1555" d="M23.69,42s-3.98-5.32-8.22-7.05a7.934,7.934,0,0,0,7.88,7.27h.47Z" transform="translate(136.68 34.94)" fill="#84b440"/>
    <path id="Path_1556" data-name="Path 1556" d="M3.32,31.67s11.61-.9,16.16,3.86A37.412,37.412,0,0,1,26.1,42.8a13,13,0,0,1,7.06-8.18c5.83-2.22,18.33-1.25,18.33-1.25v-7.3s-13.69-.44-18.03,1.52c-4.72,2.13-6.86,5.19-7.52,7.88,0,0-4.91-5.15-11.74-5.26-7.12-.12-10.88,1.46-10.88,1.46" transform="translate(136.68 34.94)" fill="#3f4040"/>
  </g>
</svg>
