<svg xmlns="http://www.w3.org/2000/svg" width="20" height="20" viewBox="0 0 20 20">
  <g id="Group_732" data-name="Group 732" transform="translate(-156 -610)">
    <g id="printer_2_" data-name="printer (2)" transform="translate(156 610)">
      <g id="Group_410" data-name="Group 410">
        <g id="Group_409" data-name="Group 409">
          <path id="Path_597" data-name="Path 597" d="M18.828,7.132V5.273A1.76,1.76,0,0,0,17.07,3.516h-.929L12.8.172l0,0a.587.587,0,0,0-.4-.169H4.1a.586.586,0,0,0-.586.586v2.93H2.93A1.76,1.76,0,0,0,1.172,5.273V7.132A1.761,1.761,0,0,0,0,8.789V15.9a1.76,1.76,0,0,0,1.758,1.758H3.516v1.758A.586.586,0,0,0,4.1,20H15.9a.586.586,0,0,0,.586-.586V17.656h1.758A1.76,1.76,0,0,0,20,15.9V8.789A1.761,1.761,0,0,0,18.828,7.132ZM16.484,4.688h.586a.587.587,0,0,1,.586.586V7.031H16.484ZM12.969,2l1.515,1.515H12.969ZM4.688,1.172H11.8V4.1a.586.586,0,0,0,.586.586h2.93V7.031H4.688Zm-2.344,4.1a.587.587,0,0,1,.586-.586h.586V7.031H2.344ZM15.313,18.828H4.688V12.969H15.313Zm3.516-2.93a.587.587,0,0,1-.586.586H16.484V12.969h.586a.586.586,0,0,0,0-1.172H2.93a.586.586,0,0,0,0,1.172h.586v3.516H1.758a.587.587,0,0,1-.586-.586V8.789A.587.587,0,0,1,1.758,8.2H18.242a.587.587,0,0,1,.586.586Z" fill="#fff"/>
        </g>
      </g>
      <g id="Group_412" data-name="Group 412">
        <g id="Group_411" data-name="Group 411">
          <path id="Path_598" data-name="Path 598" d="M13.555,14.141H6.445a.586.586,0,0,0,0,1.172h7.109a.586.586,0,0,0,0-1.172Z" fill="#fff"/>
        </g>
      </g>
      <g id="Group_414" data-name="Group 414">
        <g id="Group_413" data-name="Group 413">
          <path id="Path_599" data-name="Path 599" d="M13.555,16.484H6.445a.586.586,0,0,0,0,1.172h7.109a.586.586,0,0,0,0-1.172Z" fill="#fff"/>
        </g>
      </g>
      <g id="Group_416" data-name="Group 416">
        <g id="Group_415" data-name="Group 415">
          <path id="Path_600" data-name="Path 600" d="M4.1,9.375H2.93a.586.586,0,0,0,0,1.172H4.1a.586.586,0,0,0,0-1.172Z" fill="#fff"/>
        </g>
      </g>
    </g>
  </g>
</svg>
