<svg xmlns="http://www.w3.org/2000/svg" width="19.909" height="20" viewBox="0 0 19.909 20">
  <g id="Group_1135" data-name="Group 1135" transform="translate(-1349.046 -361)">
    <g id="link_1_" data-name="link (1)" transform="translate(1349 361)">
      <path id="Path_1194" data-name="Path 1194" d="M12.347,7.7l-.023-.023a1.333,1.333,0,1,0-1.885,1.885l.023.023a2.42,2.42,0,0,1,0,3.423L8.181,15.29a.3.3,0,1,0,.417.417l2.281-2.281a3.011,3.011,0,0,0,0-4.257l-.023-.023A.743.743,0,0,1,11.907,8.1l.023.023a4.5,4.5,0,0,1,0,6.359L8.311,18.1a4.5,4.5,0,1,1-6.359-6.359L5.592,8.1a.3.3,0,0,0-.417-.417l-3.64,3.64a5.086,5.086,0,0,0,7.193,7.193l3.618-3.618a5.092,5.092,0,0,0,0-7.193Z" fill="#f6f5f5"/>
      <path id="Path_1195" data-name="Path 1195" d="M5.35,10.44,3,12.787a3,3,0,0,0,2.116,5.126,3.066,3.066,0,0,0,2.171-.9l.419-.419a.3.3,0,0,0-.417-.417l-.419.419a2.452,2.452,0,0,1-3.425.056A2.423,2.423,0,0,1,3.421,13.2l2.347-2.347a.3.3,0,0,0-.417-.417Z" fill="#f6f5f5"/>
      <path id="Path_1196" data-name="Path 1196" d="M18.467,1.49a5.086,5.086,0,0,0-7.193,0l-.2.2a.3.3,0,0,0,.417.417l.2-.2A4.5,4.5,0,0,1,18.05,8.266l-3.64,3.64a.3.3,0,0,0,.417.417l3.64-3.64a5.092,5.092,0,0,0,0-7.193Z" fill="#f6f5f5"/>
      <path id="Path_1197" data-name="Path 1197" d="M14.652,9.562,17,7.215a3.013,3.013,0,0,0-.033-4.29,3.044,3.044,0,0,0-4.253.062L9.123,6.576a3.014,3.014,0,0,0,0,4.258l.023.023A.743.743,0,0,1,8.1,11.907l-.023-.023a4.5,4.5,0,0,1,0-6.359L10.6,3a.3.3,0,0,0-.417-.417L7.655,5.108a5.092,5.092,0,0,0,0,7.193l.023.023a1.333,1.333,0,1,0,1.885-1.885l-.023-.023a2.423,2.423,0,0,1,0-3.423L13.13,3.4a2.452,2.452,0,0,1,3.425-.056A2.423,2.423,0,0,1,16.582,6.8L14.235,9.145a.3.3,0,1,0,.417.417Z" fill="#f6f5f5"/>
    </g>
  </g>
</svg>
