<svg xmlns="http://www.w3.org/2000/svg" xmlns:xlink="http://www.w3.org/1999/xlink" width="30" height="30" viewBox="0 0 30 30">
  <defs>
    <clipPath id="clip-path">
      <rect id="Rectangle_2146" data-name="Rectangle 2146" width="30" height="30" transform="translate(82 330)" fill="#fff" stroke="#707070" stroke-width="1"/>
    </clipPath>
  </defs>
  <g id="Mask_Group_55" data-name="Mask Group 55" transform="translate(-82 -330)" clip-path="url(#clip-path)">
    <g id="books" transform="translate(82 330)">
      <g id="Group_1354" data-name="Group 1354">
        <path id="Path_1239" data-name="Path 1239" d="M.98,5.662H23.612v6.3H.98Z" fill="#ffda45"/>
      </g>
      <path id="Path_1240" data-name="Path 1240" d="M21.089,5.662h2.524v6.3H21.089Z" fill="#fac800"/>
      <path id="Path_1241" data-name="Path 1241" d="M13.958,5.662h7.16v6.3h-7.16Z" fill="#fff5f5"/>
      <g id="Group_1375" data-name="Group 1375">
        <g id="Group_1373" data-name="Group 1373">
          <g id="Group_1359" data-name="Group 1359">
            <path id="Path_1242" data-name="Path 1242" d="M28.3,29.56H5.84a3.326,3.326,0,1,1,0-6.651H28.3Z" fill="#f0f5fa"/>
            <path id="Path_1243" data-name="Path 1243" d="M25.95,22.908H28.3V29.56H25.95Z" fill="#e4ecf2"/>
            <g id="Group_1355" data-name="Group 1355">
              <path id="Path_1244" data-name="Path 1244" d="M29.472,30H5.84a3.766,3.766,0,1,1,0-7.532H29.472a.44.44,0,1,1,0,.88H5.84a2.886,2.886,0,1,0,0,5.771H29.472a.44.44,0,1,1,0,.88Z" fill="#6e9eff"/>
            </g>
            <g id="Group_1358" data-name="Group 1358">
              <g id="Group_1356" data-name="Group 1356">
                <path id="Path_1245" data-name="Path 1245" d="M28.3,25.566H10.168a.44.44,0,0,1,0-.88H28.3Z" fill="#c5d7e6"/>
              </g>
              <g id="Group_1357" data-name="Group 1357">
                <path id="Path_1246" data-name="Path 1246" d="M28.3,27.783H14.982a.44.44,0,1,1,0-.88H28.3Z" fill="#c5d7e6"/>
              </g>
            </g>
          </g>
          <g id="Group_1363" data-name="Group 1363">
            <path id="Path_1247" data-name="Path 1247" d="M24.534,22.031H2.681a2.152,2.152,0,1,1,0-4.3H24.534v4.3Z" fill="#f0f5fa"/>
            <path id="Path_1248" data-name="Path 1248" d="M22.186,17.726h2.348v4.3H22.186Z" fill="#e4ecf2"/>
            <g id="Group_1360" data-name="Group 1360">
              <path id="Path_1249" data-name="Path 1249" d="M25.88,22.471H2.681a2.593,2.593,0,1,1,0-5.185h23.2a.44.44,0,1,1,0,.88H2.681a1.712,1.712,0,1,0,0,3.424h23.2a.44.44,0,1,1,0,.88Z" fill="#74d84b"/>
            </g>
            <g id="Group_1362" data-name="Group 1362">
              <g id="Group_1361" data-name="Group 1361">
                <path id="Path_1250" data-name="Path 1250" d="M24.534,20.41H18.353a.44.44,0,0,1,0-.88h6.181Z" fill="#c5d7e6"/>
              </g>
            </g>
          </g>
          <g id="Group_1365" data-name="Group 1365">
            <path id="Path_1251" data-name="Path 1251" d="M7.808.44h17.54a2.391,2.391,0,0,1,0,4.782H7.808Z" fill="#f0f5fa"/>
            <path id="Path_1252" data-name="Path 1252" d="M25.349.44H23a2.391,2.391,0,0,1,0,4.782h2.348a2.391,2.391,0,0,0,0-4.782Z" fill="#e4ecf2"/>
            <g id="Group_1364" data-name="Group 1364">
              <path id="Path_1253" data-name="Path 1253" d="M25.349,5.662H6.313a.44.44,0,0,1,0-.88H25.349a1.951,1.951,0,0,0,0-3.9H6.313a.44.44,0,0,1,0-.88H25.349a2.831,2.831,0,0,1,0,5.662Z" fill="#fc435f"/>
            </g>
          </g>
          <g id="Group_1368" data-name="Group 1368">
            <g id="Group_1366" data-name="Group 1366">
              <path id="Path_1254" data-name="Path 1254" d="M3.527,11.959H29.7v5.327H3.527Z" fill="#6e9eff"/>
            </g>
            <path id="Path_1255" data-name="Path 1255" d="M21.705,11.959H29.7v5.327H21.705Z" fill="#bf6930"/>
            <path id="Path_1256" data-name="Path 1256" d="M27.349,11.959H29.7v5.327H27.349Z" fill="#ad5f2c"/>
            <path id="Path_1257" data-name="Path 1257" d="M12.53,15.5H6.543a.88.88,0,1,1,0-1.761H12.53a.88.88,0,0,1,0,1.761Z" fill="#fff5f5"/>
            <g id="Group_1367" data-name="Group 1367">
              <path id="Path_1258" data-name="Path 1258" d="M27.154,15.063H24.288a.44.44,0,1,1,0-.88h2.866a.44.44,0,0,1,0,.88Z" fill="#fff5f5"/>
            </g>
          </g>
          <g id="Group_1372" data-name="Group 1372">
            <g id="Group_1369" data-name="Group 1369">
              <path id="Path_1259" data-name="Path 1259" d="M19.142,9.8a.44.44,0,0,1-.44-.44v-1.1a.44.44,0,1,1,.88,0v1.1A.44.44,0,0,1,19.142,9.8Z" fill="#677a8f"/>
            </g>
            <g id="Group_1370" data-name="Group 1370">
              <path id="Path_1260" data-name="Path 1260" d="M17.538,9.8a.44.44,0,0,1-.44-.44v-1.1a.44.44,0,1,1,.88,0v1.1A.44.44,0,0,1,17.538,9.8Z" fill="#677a8f"/>
            </g>
            <g id="Group_1371" data-name="Group 1371">
              <path id="Path_1261" data-name="Path 1261" d="M15.934,9.8a.44.44,0,0,1-.44-.44v-1.1a.44.44,0,1,1,.88,0v1.1A.44.44,0,0,1,15.934,9.8Z" fill="#677a8f"/>
            </g>
          </g>
        </g>
        <g id="Group_1374" data-name="Group 1374">
          <path id="Path_1262" data-name="Path 1262" d="M7.8,2.391H17.84a.44.44,0,0,1,0,.88H7.8Z" fill="#c5d7e6"/>
        </g>
      </g>
    </g>
  </g>
</svg>
