<svg xmlns="http://www.w3.org/2000/svg" width="119" height="119" viewBox="0 0 119 119">
  <g id="Group_432" data-name="Group 432" transform="translate(-1323 -1130)">
    <g id="environment" transform="translate(1316.845 1123.845)">
      <path id="Path_606" data-name="Path 606" d="M94.379,45.611c0,4.271-3.972,7.733-8.871,7.733a9.685,9.685,0,0,1-5.491-1.659,9.686,9.686,0,0,1-5.492,1.659c-4.9,0-8.87-3.462-8.87-7.733a7.2,7.2,0,0,1,2.352-5.245A6.065,6.065,0,0,1,66.5,36.4a6.813,6.813,0,0,1,5.358-6.335c.967-3.139,4.253-5.45,8.159-5.45s7.192,2.311,8.159,5.449A6.811,6.811,0,0,1,93.534,36.4a6.067,6.067,0,0,1-1.507,3.961,7.2,7.2,0,0,1,2.352,5.245Z" fill="#6a9c72"/>
      <path id="Path_607" data-name="Path 607" d="M80.017,67.707a2.052,2.052,0,0,1-2.052-2.052V41.034a2.052,2.052,0,0,1,4.1,0V65.655A2.052,2.052,0,0,1,80.017,67.707Z" fill="#996046"/>
      <path id="Path_608" data-name="Path 608" d="M80.015,49.241a2.045,2.045,0,0,1-.916-.217L75,46.972a2.052,2.052,0,1,1,1.835-3.67l4.1,2.052a2.052,2.052,0,0,1-.919,3.887Z" fill="#996046"/>
      <path id="Path_609" data-name="Path 609" d="M125.155,43.4c0,5.491-5.107,9.943-11.406,9.943a12.454,12.454,0,0,1-7.06-2.133,12.456,12.456,0,0,1-7.061,2.133c-6.3,0-11.4-4.452-11.4-9.943a9.256,9.256,0,0,1,3.024-6.743,7.8,7.8,0,0,1-1.938-5.093c0-3.83,2.9-7.071,6.889-8.145,1.244-4.035,5.469-7.006,10.49-7.006s9.246,2.971,10.489,7.006c3.989,1.074,6.889,4.315,6.889,8.145a7.8,7.8,0,0,1-1.937,5.093A9.256,9.256,0,0,1,125.155,43.4Z" fill="#88c791"/>
      <path id="Path_610" data-name="Path 610" d="M106.69,67.707a2.052,2.052,0,0,1-2.052-2.052V36.931a2.052,2.052,0,0,1,4.1,0V65.655A2.052,2.052,0,0,1,106.69,67.707Z" fill="#b37a60"/>
      <path id="Path_611" data-name="Path 611" d="M106.69,47.19a2.05,2.05,0,0,1-1.138-.345l-6.155-4.1a2.052,2.052,0,1,1,2.276-3.414l5.017,3.345,5.017-3.345a2.052,2.052,0,1,1,2.276,3.414l-6.155,4.1a2.049,2.049,0,0,1-1.138.345Z" fill="#b37a60"/>
      <path id="Path_612" data-name="Path 612" d="M57.448,65.655v8.207H8.207V65.655l20.122-26.57a5.774,5.774,0,0,1,9,0Z" fill="#828c52"/>
      <path id="Path_613" data-name="Path 613" d="M67.707,65.655v8.207H32.828V65.655l13.357-18.46a5.078,5.078,0,0,1,8.163,0Z" fill="#8f9e46"/>
      <path id="Path_614" data-name="Path 614" d="M57.448,65.655H6.155a59.5,59.5,0,1,0,119,0Z" fill="#a3d4f7"/>
      <path id="Path_615" data-name="Path 615" d="M74.916,124.439A59.555,59.555,0,0,1,6.155,65.655H57.448S59.5,73.862,73.862,80.017c12.659,5.424,16.3,26.788,1.054,44.422Z" fill="#6a9c72"/>
      <path id="Path_616" data-name="Path 616" d="M125.155,65.655a59.342,59.342,0,0,1-19.545,44.089c-4.1-6.807-4.9-13.1-.972-23.572,6.155-16.414-8.207-20.517-8.207-20.517Z" fill="#6a9c72"/>
      <path id="Path_617" data-name="Path 617" d="M38.983,18.465a6.157,6.157,0,0,1-6.155,6.155,6.085,6.085,0,0,1-3.113-.849,10.251,10.251,0,0,1-14.29,0,6.085,6.085,0,0,1-3.113.849,6.155,6.155,0,1,1,0-12.31,5.924,5.924,0,0,1,.831.056,10.26,10.26,0,0,1,18.855,0,5.924,5.924,0,0,1,.831-.056,6.157,6.157,0,0,1,6.155,6.155Z" fill="#a3d4f7"/>
      <g id="Group_426" data-name="Group 426">
        <path id="Path_618" data-name="Path 618" d="M65.655,16.414A2.052,2.052,0,0,1,63.6,14.362a3.1,3.1,0,0,0-.336-1.211,1.672,1.672,0,0,0-1.715-.841,2.052,2.052,0,1,1,0-4.1,5.969,5.969,0,0,1,4.1,1.442,5.968,5.968,0,0,1,4.1-1.442,2.052,2.052,0,0,1,0,4.1,1.672,1.672,0,0,0-1.715.841,3.084,3.084,0,0,0-.336,1.231A2.052,2.052,0,0,1,65.655,16.414Z" fill="#734b39"/>
        <path id="Path_619" data-name="Path 619" d="M51.293,32.828a2.052,2.052,0,0,1-2.052-2.052,3.1,3.1,0,0,0-.336-1.211,1.672,1.672,0,0,0-1.715-.841,2.052,2.052,0,1,1,0-4.1,5.969,5.969,0,0,1,4.1,1.442,5.968,5.968,0,0,1,4.1-1.442,2.052,2.052,0,1,1,0,4.1,1.673,1.673,0,0,0-1.715.841,3.084,3.084,0,0,0-.336,1.231,2.052,2.052,0,0,1-2.052,2.031Z" fill="#734b39"/>
      </g>
    </g>
  </g>
</svg>
