<svg xmlns="http://www.w3.org/2000/svg" width="113.819" height="110" viewBox="0 0 113.819 110">
  <g id="Group_436" data-name="Group 436" transform="translate(-1595.091 -1129)">
    <g id="gear" transform="translate(1595.091 1128.987)">
      <path id="Path_620" data-name="Path 620" d="M104.585,64.547V45.466H95.773a40.013,40.013,0,0,0-4.636-11.2l6.232-6.233L83.883,14.559,77.65,20.792a39.647,39.647,0,0,0-11.2-4.636V7.344H47.369v8.812a40.029,40.029,0,0,0-11.2,4.636l-6.233-6.233L16.462,28.033l6.233,6.233a39.647,39.647,0,0,0-4.636,11.2H9.246V64.534h8.812a40.029,40.029,0,0,0,4.636,11.2l-6.233,6.233L29.936,95.454l6.233-6.232a39.646,39.646,0,0,0,11.2,4.636v8.812H66.437V93.857a40.007,40.007,0,0,0,11.2-4.636l6.233,6.232L97.357,81.967l-6.233-6.233a39.647,39.647,0,0,0,4.636-11.2h8.825ZM56.91,83.615A28.608,28.608,0,1,1,85.518,55.006,28.61,28.61,0,0,1,56.91,83.615Zm0,0" fill="#6ba840"/>
      <path id="Path_621" data-name="Path 621" d="M72.695,110.013l-1.047-3.665c1.239-.358,2.477-.766,3.678-1.2l1.316,3.576c-1.29.472-2.618.906-3.947,1.29Zm0,0" fill="#d5e174"/>
      <path id="Path_622" data-name="Path 622" d="M80.588,107.1,79,103.627a53.572,53.572,0,0,0,31.022-43.091l3.793.383A57.4,57.4,0,0,1,80.588,107.1Zm0,0" fill="#d5e174"/>
      <path id="Path_623" data-name="Path 623" d="M38.493,4.879,37.178,1.3C38.467.83,39.8.4,41.124.013l1.047,3.665c-1.226.345-2.465.753-3.678,1.2Zm0,0" fill="#d5e174"/>
      <path id="Path_624" data-name="Path 624" d="M3.793,49.476,0,49.093A57.4,57.4,0,0,1,33.231,2.912l1.584,3.474A53.572,53.572,0,0,0,3.793,49.476Zm0,0" fill="#d5e174"/>
      <path id="Path_625" data-name="Path 625" d="M66.552,65.748c-3.742,3.614-13.474,4.47-17.433-1.073-5.556-7.778-.358-16.284-5.556-23.691,0,0,14.432-5.364,23.32,6.3,4.789,6.283,3.4,14.866-.332,18.468Zm0,0" fill="#6ba840"/>
      <path id="Path_626" data-name="Path 626" d="M62.963,76.131l-3.806-.307a53.656,53.656,0,0,0-4.342-25.785l3.487-1.52a57.43,57.43,0,0,1,4.662,27.612Zm0,0" fill="#8c6239"/>
      <g id="Group_435" data-name="Group 435">
        <path id="Path_627" data-name="Path 627" d="M55.006,13.052h3.819v3.819H55.006Zm0,0" fill="#d5e174"/>
        <path id="Path_628" data-name="Path 628" d="M25.9,26.7,28.6,24l2.7,2.7-2.7,2.7Zm0,0" fill="#d5e174"/>
        <path id="Path_629" data-name="Path 629" d="M14.956,53.1h3.818v3.818H14.956Zm0,0" fill="#d5e174"/>
        <path id="Path_630" data-name="Path 630" d="M25.893,83.328l2.7-2.7,2.7,2.7-2.7,2.7Zm0,0" fill="#d5e174"/>
        <path id="Path_631" data-name="Path 631" d="M55.006,93.142h3.819v3.818H55.006Zm0,0" fill="#d5e174"/>
        <path id="Path_632" data-name="Path 632" d="M82.532,83.322l2.7-2.7,2.7,2.7-2.7,2.7Zm0,0" fill="#d5e174"/>
        <path id="Path_633" data-name="Path 633" d="M95.045,53.1h3.819v3.818H95.045Zm0,0" fill="#d5e174"/>
        <path id="Path_634" data-name="Path 634" d="M82.533,26.694l2.7-2.7,2.7,2.7-2.7,2.7Zm0,0" fill="#d5e174"/>
      </g>
    </g>
  </g>
</svg>
