<svg xmlns="http://www.w3.org/2000/svg" width="17" height="19.423" viewBox="0 0 17 19.423">
  <path id="Icon_simple-scribd" data-name="Icon simple-scribd" d="M13.676,17.043a3.617,3.617,0,0,1,2.971-3.486,4.437,4.437,0,0,0-1.861-3.515A17.851,17.851,0,0,0,10.52,7.973C8.734,7.3,7.4,6.7,7.4,5.406c0-1.094.981-1.917,2.63-1.917a4.632,4.632,0,0,1,1.988.323.473.473,0,0,1-.075.25.854.854,0,0,0-.075.4,2.1,2.1,0,0,0,2.3,2.068,2.128,2.128,0,0,0,2.142-2.393,3.556,3.556,0,0,0-1.835-2.964A8.77,8.77,0,0,0,9.88,0,7.8,7.8,0,0,0,5.233,1.794,5.116,5.116,0,0,0,3.426,5.73a4.553,4.553,0,0,0,1.7,3.79,14.273,14.273,0,0,0,4.415,2.117c1.989.618,3.15,1.263,3.15,2.539s-1.161,2.065-3,2.065a4.35,4.35,0,0,1-2.479-.618A1.866,1.866,0,0,0,7.4,14.65a2.226,2.226,0,0,0-2.318-2.078A2.257,2.257,0,0,0,2.8,14.965a3.836,3.836,0,0,0,2.05,3.111,9,9,0,0,0,4.883,1.347,7.5,7.5,0,0,0,4.317-1.1,2.855,2.855,0,0,1-.327-1.3Zm6.12,0a2.317,2.317,0,0,1-4.631,0,2.26,2.26,0,0,1,2.289-2.211,2.286,2.286,0,0,1,2.318,2.224l.024-.015Z" transform="translate(-2.796)" fill="#0088c3"/>
</svg>
