<svg id="Group_5" data-name="Group 5" xmlns="http://www.w3.org/2000/svg" width="18" height="18" viewBox="0 0 18 18">
  <g id="search-2" transform="translate(2 2.014)">
    <path id="Path_7" data-name="Path 7" d="M5.731,11.477a5.71,5.71,0,0,0,3.18-.966L12.2,13.8a.685.685,0,0,0,.955,0l.641-.641a.685.685,0,0,0,0-.955L10.5,8.926a5.729,5.729,0,1,0-4.765,2.551Zm0-9.215A3.484,3.484,0,1,1,2.248,5.746,3.487,3.487,0,0,1,5.731,2.262Z" transform="translate(0 -0.014)" fill="#818181"/>
  </g>
  <path id="Path_5" data-name="Path 5" d="M0,0H18V18H0Z" fill="none"/>
</svg>
