<svg xmlns="http://www.w3.org/2000/svg" width="16.9" height="18.4" viewBox="0 0 16.9 18.4">
  <g id="Group_733" data-name="Group 733" transform="translate(-151.55 -608.8)">
    <g id="share" transform="translate(151.75 609)">
      <path id="Path_601" data-name="Path 601" d="M13.687,5.625A2.813,2.813,0,1,1,16.5,2.813,2.816,2.816,0,0,1,13.687,5.625Zm0-4.5a1.688,1.688,0,1,0,1.688,1.688A1.69,1.69,0,0,0,13.687,1.125Zm0,0" fill="#fff" stroke="#fff" stroke-width="0.4"/>
      <path id="Path_602" data-name="Path 602" d="M13.687,18A2.813,2.813,0,1,1,16.5,15.188,2.816,2.816,0,0,1,13.687,18Zm0-4.5a1.688,1.688,0,1,0,1.688,1.688A1.69,1.69,0,0,0,13.687,13.5Zm0,0" fill="#fff" stroke="#fff" stroke-width="0.4"/>
      <path id="Path_603" data-name="Path 603" d="M2.813,11.813A2.813,2.813,0,1,1,5.625,9,2.816,2.816,0,0,1,2.813,11.813Zm0-4.5A1.688,1.688,0,1,0,4.5,9,1.69,1.69,0,0,0,2.813,7.313Zm0,0" fill="#fff" stroke="#fff" stroke-width="0.4"/>
      <path id="Path_604" data-name="Path 604" d="M4.771,8.452A.562.562,0,0,1,4.492,7.4l6.959-3.968a.562.562,0,0,1,.556.977L5.048,8.379a.564.564,0,0,1-.277.073Zm0,0" fill="#fff" stroke="#fff" stroke-width="0.4"/>
      <path id="Path_605" data-name="Path 605" d="M11.729,14.64a.558.558,0,0,1-.278-.074L4.492,10.6a.562.562,0,0,1,.557-.977l6.959,3.967a.563.563,0,0,1-.279,1.052Zm0,0" fill="#fff" stroke="#fff" stroke-width="0.4"/>
    </g>
  </g>
</svg>
