<svg xmlns="http://www.w3.org/2000/svg" width="40" height="35" viewBox="0 0 40 35">
  <g id="Group_1934" data-name="Group 1934" transform="translate(-624 -1528)">
    <path id="Path_695" data-name="Path 695" d="M7,0H33a7,7,0,0,1,7,7V28a7,7,0,0,1-7,7H7a7,7,0,0,1-7-7V7A7,7,0,0,1,7,0Z" transform="translate(624 1528)" fill="#85b640"/>
    <g id="Group_395" data-name="Group 395" transform="translate(25 -61)">
      <g id="telephone" transform="translate(611.375 1598.375)">
        <path id="Path_577" data-name="Path 577" d="M19.654,15.743a9.7,9.7,0,0,1-4.395-1.033.891.891,0,0,0-.688-.042.915.915,0,0,0-.516.471l-.647,1.376a12.837,12.837,0,0,1-4.668-4.8l1.341-.665a.917.917,0,0,0,.458-.53.954.954,0,0,0-.041-.707A10.4,10.4,0,0,1,9.491,5.3a.912.912,0,0,0-.9-.924H5.274a.912.912,0,0,0-.9.924A15.512,15.512,0,0,0,19.654,21a.912.912,0,0,0,.9-.924v-3.41A.912.912,0,0,0,19.654,15.743Z" transform="translate(-4.375 -4.375)" fill="#fff"/>
      </g>
    </g>
  </g>
</svg>
