<svg xmlns="http://www.w3.org/2000/svg" width="10.551" height="11" viewBox="0 0 10.551 11">
  <g id="Group_344" data-name="Group 344" transform="translate(426.275 1502) rotate(180)">
    <g id="double-right-arrows-angles_1_" data-name="double-right-arrows-angles (1)" transform="translate(415.5 1491)">
      <g id="_x35__40_">
        <g id="Group_342" data-name="Group 342">
          <path id="Path_562" data-name="Path 562" d="M5.231,5.5A.453.453,0,0,0,5.1,5.139L1.013,1.057A.462.462,0,0,0,.36,1.71l3.8,3.79L.36,9.29a.462.462,0,0,0,.653.652L5.1,5.861A.453.453,0,0,0,5.231,5.5Zm5.415-.361-5.013-5A.462.462,0,0,0,4.98.787L9.7,5.5,4.98,10.212a.462.462,0,0,0,.653.653l5.012-5a.453.453,0,0,0,.128-.361A.452.452,0,0,0,10.646,5.139Z" fill="#fff"/>
        </g>
      </g>
    </g>
  </g>
</svg>
