<svg xmlns="http://www.w3.org/2000/svg" width="22" height="18.3" viewBox="0 0 22 18.3">
  <g id="Group_263" data-name="Group 263" transform="translate(-1267 -36.682)">
    <path id="twitter" d="M21.65,3.811a8.712,8.712,0,0,1-1.517.512,4.73,4.73,0,0,0,1.248-1.988h0a.248.248,0,0,0-.363-.289h0A8.753,8.753,0,0,1,18.7,3a.591.591,0,0,1-.145.018.615.615,0,0,1-.406-.155,4.743,4.743,0,0,0-3.138-1.184,5.071,5.071,0,0,0-1.5.232,4.6,4.6,0,0,0-3.1,3.311A5.06,5.06,0,0,0,10.3,6.971a.17.17,0,0,1-.043.133.176.176,0,0,1-.131.059h-.017A12.437,12.437,0,0,1,1.56,2.6h0a.248.248,0,0,0-.406.032h0a4.748,4.748,0,0,0,.772,5.765A4.25,4.25,0,0,1,.844,7.974h0a.248.248,0,0,0-.368.214h0a4.749,4.749,0,0,0,2.77,4.375h-.1a4.268,4.268,0,0,1-.8-.076h0a.248.248,0,0,0-.283.319h0a4.754,4.754,0,0,0,3.755,3.233,8.752,8.752,0,0,1-4.9,1.489H.367a.363.363,0,0,0-.355.274.376.376,0,0,0,.18.415,13.018,13.018,0,0,0,6.541,1.764,13.2,13.2,0,0,0,5.59-1.186,12.344,12.344,0,0,0,4.09-3.065,13.437,13.437,0,0,0,2.5-4.195,13.251,13.251,0,0,0,.851-4.591V6.873a.807.807,0,0,1,.3-.628,9.375,9.375,0,0,0,1.886-2.07h0a.248.248,0,0,0-.307-.364Z" transform="translate(1267 35)" fill="#76a9ea"/>
  </g>
</svg>
