<svg id="Group_770" data-name="Group 770" xmlns="http://www.w3.org/2000/svg" width="25" height="19.043" viewBox="0 0 25 19.043">
  <g id="youtube_2_" data-name="youtube (2)">
    <path id="Path_1117" data-name="Path 1117" d="M16.55,11.879,10.691,8.217a.732.732,0,0,0-1.121.621v7.324a.732.732,0,0,0,1.121.621l5.859-3.662a.732.732,0,0,0,0-1.242Zm-5.515,2.962V10.159L14.78,12.5Z" transform="translate(0 -2.979)" fill="#fff"/>
    <path id="Path_1118" data-name="Path 1118" d="M21.338,2.979H3.662A3.666,3.666,0,0,0,0,6.641V18.359a3.666,3.666,0,0,0,3.662,3.662H21.338A3.666,3.666,0,0,0,25,18.359V6.641A3.666,3.666,0,0,0,21.338,2.979Zm2.2,15.381a2.2,2.2,0,0,1-2.2,2.2H3.662a2.2,2.2,0,0,1-2.2-2.2V6.641a2.2,2.2,0,0,1,2.2-2.2H21.338a2.2,2.2,0,0,1,2.2,2.2Z" transform="translate(0 -2.979)" fill="#fff"/>
  </g>
</svg>
