<svg id="Group_474" data-name="Group 474" xmlns="http://www.w3.org/2000/svg" width="20" height="12.747" viewBox="0 0 20 12.747">
  <g id="view" transform="translate(0 0)">
    <g id="Group_104" data-name="Group 104">
      <g id="Group_103" data-name="Group 103">
        <path id="Path_170" data-name="Path 170" d="M19.873,9.611C19.694,9.367,15.437,3.626,10,3.626S.305,9.367.127,9.611a.66.66,0,0,0,0,.778c.178.244,4.436,5.985,9.873,5.985s9.694-5.74,9.873-5.984A.659.659,0,0,0,19.873,9.611ZM10,15.055c-4.005,0-7.474-3.81-8.5-5.055C2.525,8.753,5.986,4.945,10,4.945S17.473,8.754,18.5,10C17.475,11.247,14.014,15.055,10,15.055Z" transform="translate(0 -3.626)" fill="#fff"/>
      </g>
    </g>
    <g id="Group_106" data-name="Group 106" transform="translate(6.044 2.418)">
      <g id="Group_105" data-name="Group 105">
        <path id="Path_171" data-name="Path 171" d="M10,6.044A3.956,3.956,0,1,0,13.956,10,3.961,3.961,0,0,0,10,6.044Zm0,6.593A2.637,2.637,0,1,1,12.637,10,2.64,2.64,0,0,1,10,12.637Z" transform="translate(-6.044 -6.044)" fill="#fff"/>
      </g>
    </g>
  </g>
</svg>
