<svg xmlns="http://www.w3.org/2000/svg" width="22" height="15.568" viewBox="0 0 22 15.568">
  <g id="Group_262" data-name="Group 262" transform="translate(-1242 -37.924)">
    <path id="youtube" d="M17.431,2.924H4.569A4.569,4.569,0,0,0,0,7.493v6.43a4.569,4.569,0,0,0,4.569,4.569H17.431A4.569,4.569,0,0,0,22,13.922V7.493A4.569,4.569,0,0,0,17.431,2.924Zm-3.09,8.1L8.325,13.89a.241.241,0,0,1-.345-.218V7.754a.241.241,0,0,1,.351-.215l6.016,3.049A.242.242,0,0,1,14.341,11.02Z" transform="translate(1242 35)" fill="#f61c0d"/>
  </g>
</svg>
